<?xml version="1.0" encoding="UTF-8"?>
<svg version="1.1" xmlns="http://www.w3.org/2000/svg" width="620" height="393">
<path d="M0 0 C204.6 0 409.2 0 620 0 C620 129.69 620 259.38 620 393 C415.4 393 210.8 393 0 393 C0 263.31 0 133.62 0 0 Z " fill="#FDFDFD" transform="translate(0,0)"/>
<path d="M0 0 C-1 2 -1 2 -2.78515625 2.78125 C-3.53667969 3.0184375 -4.28820312 3.255625 -5.0625 3.5 C-5.88105469 3.76039062 -6.69960938 4.02078125 -7.54296875 4.2890625 C-9.63310484 4.89383956 -11.75256407 5.39574027 -13.875 5.875 C-18.26857318 6.91443381 -22.16534829 8.83695911 -26.234375 10.7578125 C-30.07731248 12.48387764 -33.98008721 13.74789602 -38 15 C-38 15.66 -38 16.32 -38 17 C-39.6796875 18.2890625 -39.6796875 18.2890625 -41.875 19.625 C-42.59429687 20.07101563 -43.31359375 20.51703125 -44.0546875 20.9765625 C-46 22 -46 22 -48 22 C-48 22.66 -48 23.32 -48 24 C-42.44851395 21.28624628 -37.14855175 18.43236783 -32 15 C-30.68 15 -29.36 15 -28 15 C-28 14.34 -28 13.68 -28 13 C-13.7667285 7.81537189 -0.52538737 4.95212599 14.6875 4.625 C15.83798828 4.58560303 15.83798828 4.58560303 17.01171875 4.54541016 C20.5405947 4.53517011 22.5646548 4.66767004 25.41015625 6.83984375 C28.54516108 11.09944491 30.47413113 14.62651389 30 20 C30.66 20 31.32 20 32 20 C31.67 22.97 31.34 25.94 31 29 C30.34 29 29.68 29 29 29 C28.73429199 29.87849609 28.46858398 30.75699219 28.19482422 31.66210938 C27.0390914 34.89079328 25.67678604 37.49347118 23.8828125 40.40625 C23.27566406 41.39753906 22.66851562 42.38882813 22.04296875 43.41015625 C21.41003906 44.42980469 20.77710938 45.44945312 20.125 46.5 C19.49980469 47.51964844 18.87460937 48.53929687 18.23046875 49.58984375 C11.77310004 60.08818739 11.77310004 60.08818739 9 64 C8.67 64 8.34 64 8 64 C7.70201355 56.85936185 7.64219221 50.65239066 10.265625 43.9453125 C11.24554641 41.34956323 11.64827947 38.74342017 12 36 C-6.33666445 35.35660826 -25.16454078 45.55585472 -39 57 C-39.66 57.99 -40.32 58.98 -41 60 C-41.7425 60.4125 -42.485 60.825 -43.25 61.25 C-47.8538989 64.17975385 -50.97529732 68.27996336 -53.75 72.9375 C-54.1625 73.618125 -54.575 74.29875 -55 75 C-55.66 75 -56.32 75 -57 75 C-59.04301154 79.52381127 -60.00956295 84.16371695 -61 89 C-60.071875 88.938125 -59.14375 88.87625 -58.1875 88.8125 C-53.78278951 88.79463099 -49.86718159 90.03771724 -45.66796875 91.265625 C-42.44133986 92.15377468 -39.32135683 92.63096035 -36 93 C-36 93.66 -36 94.32 -36 95 C-35.05640625 95.07347656 -35.05640625 95.07347656 -34.09375 95.1484375 C-33.2378125 95.22320312 -32.381875 95.29796875 -31.5 95.375 C-30.6646875 95.44460937 -29.829375 95.51421875 -28.96875 95.5859375 C-25.98835451 96.00162424 -23.14943693 96.69927411 -20.23974609 97.45605469 C-15.169619 98.68738706 -10.0020716 99.50823432 -4.86523438 100.41210938 C0.9566555 101.47952673 6.43996455 102.96820346 12 105 C12 105.66 12 106.32 12 107 C12.69867188 107.06058594 13.39734375 107.12117188 14.1171875 107.18359375 C15.48230469 107.30927734 15.48230469 107.30927734 16.875 107.4375 C18.23238281 107.55931641 18.23238281 107.55931641 19.6171875 107.68359375 C22 108 22 108 24 109 C24 109.66 24 110.32 24 111 C24.6909375 111.09023437 25.381875 111.18046875 26.09375 111.2734375 C30.80823313 112.45205828 34.68639517 115.1440607 38.84375 117.6015625 C43.51545507 119.67145163 46.86307981 118.14816864 51.484375 116.44140625 C61.65904034 112.79706844 71.12861225 110.12756708 81.921875 109.2890625 C84.87031321 109.34231904 84.87031321 109.34231904 86 108 C99.97193138 105.97871743 113.90764183 105.63438369 128 106 C129.18577637 106.02900391 129.18577637 106.02900391 130.39550781 106.05859375 C138.0424385 106.28243847 145.03561218 106.58350786 152 110 C152.886875 110.433125 153.77375 110.86625 154.6875 111.3125 C157.12264074 113.08949459 158.87919982 115.08578084 160.73828125 117.44921875 C162.16416524 119.25575453 162.16416524 119.25575453 164.6875 121.6875 C169 126 169 126 169 130 C168.31112198 129.99333817 167.62224396 129.98667633 166.91249084 129.97981262 C160.33971486 129.91906783 153.76702005 129.87370973 147.19402409 129.84456348 C143.81676023 129.82907393 140.43990983 129.80645765 137.06274414 129.77368164 C122.38509402 129.63493092 108.334461 129.57702578 94 133 C86.65873454 134.56961251 79.5004772 135.51027812 72 136 C72.33 136.66 72.66 137.32 73 138 C75.16634292 138.05602611 77.33315934 138.0936614 79.5 138.125 C80.7065625 138.14820313 81.913125 138.17140625 83.15625 138.1953125 C87.14038807 138.13831482 90.96960246 137.59123185 94.91015625 137.015625 C105.39715174 135.57469869 115.92174933 135.62788983 126.48999023 135.62939453 C129.92807243 135.62501202 133.364877 135.58854104 136.80273438 135.55078125 C149.43138803 135.48867368 160.89633712 136.27790487 173 140 C173 140.33 173 140.66 173 141 C172.40263031 140.99555878 171.80526062 140.99111755 171.18978882 140.98654175 C130.50626037 139.94696726 130.50626037 139.94696726 90 143 C89.67 143.33 89.34 143.66 89 144 C86.32941149 144.14115161 83.67567762 144.04247107 81 144 C82.59077979 148.21418202 82.59077979 148.21418202 85.91796875 150.89453125 C91.0412146 153.61475372 93.25559162 160.83595781 95.05078125 166.0546875 C98.09436184 177.62317866 99.52901364 194.94197272 94 206 C93.34 206 92.68 206 92 206 C91.91621094 206.53109375 91.83242188 207.0621875 91.74609375 207.609375 C90.7212147 210.89328065 88.96988875 213.39409062 87.0625 216.25 C86.35222656 217.32765625 85.64195312 218.4053125 84.91015625 219.515625 C84.27980469 220.33546875 83.64945313 221.1553125 83 222 C82.34 222 81.68 222 81 222 C80.73316406 222.58394531 80.46632813 223.16789063 80.19140625 223.76953125 C69.52292213 243.74233267 41.92896667 259.88034345 20.79199219 266.43505859 C19.53370605 266.80751709 19.53370605 266.80751709 18.25 267.1875 C17.37762695 267.44869629 16.50525391 267.70989258 15.60644531 267.97900391 C9.04581734 269.86752232 2.8545188 270.9721361 -4 271 C-4 271.66 -4 272.32 -4 273 C-11.3655311 274.02242383 -18.61547417 274.18612862 -26.04345703 274.18530273 C-28.23099478 274.18748107 -30.41802034 274.20566297 -32.60546875 274.22460938 C-40.90587267 274.25669675 -48.85027276 273.72473244 -57 272 C-57 271.34 -57 270.68 -57 270 C-57.78375 269.9175 -58.5675 269.835 -59.375 269.75 C-60.674375 269.37875 -60.674375 269.37875 -62 269 C-62.66666667 267.66666667 -63.33333333 266.33333333 -64 265 C-64.73992187 264.9175 -65.47984375 264.835 -66.2421875 264.75 C-70.15679479 263.68540425 -71.8141106 261.13065444 -74.125 258 C-74.55425781 257.45988281 -74.98351562 256.91976563 -75.42578125 256.36328125 C-81.07253886 248.9095612 -82.48331199 241.38145076 -82.25 232.1875 C-82.24484375 231.35541016 -82.2396875 230.52332031 -82.234375 229.66601562 C-82.18642343 225.92878996 -82.01493563 222.61481832 -81 219 C-80.34 219 -79.68 219 -79 219 C-79 217.68 -79 216.36 -79 215 C-78.34 215 -77.68 215 -77 215 C-76.89042969 214.40832031 -76.78085937 213.81664062 -76.66796875 213.20703125 C-75.75281262 208.64613118 -74.91149857 204.76068565 -72 201 C-71.34 201 -70.68 201 -70 201 C-69.5978125 199.824375 -69.5978125 199.824375 -69.1875 198.625 C-68 196 -68 196 -65 194 C-63.90108935 192.31086754 -63.90108935 192.31086754 -63 190.4375 C-61 187 -61 187 -58 186 C-57.67 185.01 -57.34 184.02 -57 183 C-55.66666667 182.66666667 -54.33333333 182.33333333 -53 182 C-52.67 181.01 -52.34 180.02 -52 179 C-51.34 179 -50.68 179 -50 179 C-49.34 177.35 -48.68 175.7 -48 174 C-47.34 174 -46.68 174 -46 174 C-46 173.34 -46 172.68 -46 172 C-43.78724901 170.08307133 -41.56850904 168.28028372 -39.25 166.5 C-38.61578125 166.00113281 -37.9815625 165.50226563 -37.328125 164.98828125 C-34.30916092 162.64229458 -31.47068158 160.63750822 -28 159 C-28 158.34 -28 157.68 -28 157 C-26.33984375 155.625 -26.33984375 155.625 -23.9375 154 C-23.02613281 153.38125 -22.11476563 152.7625 -21.17578125 152.125 C-20.12777344 151.42375 -19.07976562 150.7225 -18 150 C-16.80564266 149.18801006 -15.61164686 148.37548813 -14.41796875 147.5625 C14.6488904 127.85557793 14.6488904 127.85557793 29 125 C29 123.68 29 122.36 29 121 C28.01 121 27.02 121 26 121 C26 120.34 26 119.68 26 119 C25.154375 118.896875 24.30875 118.79375 23.4375 118.6875 C20.31831932 118.06366386 17.85232945 117.06864686 14.98046875 115.75 C12.68858523 114.88206778 10.47680677 114.47659243 8.0625 114.0625 C4.73230667 113.47013377 2.2706464 112.73227412 -0.625 111 C-5.1599689 108.49602944 -10.03384025 108.15923142 -15.10205078 107.68359375 C-18.31207089 107.37570829 -21.22745825 106.93237728 -24.32421875 106.01171875 C-29.10994568 104.69449954 -33.81450899 104.33110712 -38.75 103.9375 C-40.62005872 103.78315 -42.48986754 103.62573308 -44.359375 103.46484375 C-45.17889648 103.399021 -45.99841797 103.33319824 -46.84277344 103.26538086 C-49 103 -49 103 -52 102 C-53.06347656 102.05800781 -54.12695312 102.11601562 -55.22265625 102.17578125 C-65.11738902 102.52808608 -65.11738902 102.52808608 -68.64648438 99.66357422 C-72.71164533 95.12680146 -75.95404399 89.81457254 -78.07421875 84.109375 C-78.53248047 83.06523437 -78.53248047 83.06523437 -79 82 C-79.99 81.67 -80.98 81.34 -82 81 C-84.87354149 72.37937554 -81.6085259 64.29138589 -79 56 C-78.34 56 -77.68 56 -77 56 C-76.90203125 55.33613281 -76.8040625 54.67226562 -76.703125 53.98828125 C-75.77487779 48.5068214 -74.8348646 45.18348866 -71 41 C-70.54882812 40.06542969 -70.09765625 39.13085938 -69.6328125 38.16796875 C-65.60110389 30.34568243 -58.11618095 23.153685 -51 18 C-50.34 18 -49.68 18 -49 18 C-49 17.34 -49 16.68 -49 16 C-48.51120361 15.74307373 -48.02240723 15.48614746 -47.51879883 15.22143555 C-45.28258238 14.04493943 -43.04753503 12.86623884 -40.8125 11.6875 C-40.04357422 11.28337891 -39.27464844 10.87925781 -38.48242188 10.46289062 C-35.33116869 8.79935353 -32.22267255 7.13650661 -29.18359375 5.2734375 C-25.98945056 3.41066348 -22.57241581 2.78025688 -19 2 C-18.28585937 1.81308594 -17.57171875 1.62617187 -16.8359375 1.43359375 C-11.16025122 -0.00036939 -5.83853004 -0.21940196 0 0 Z " fill="#252324" transform="translate(403,34)"/>
<path d="M0 0 C1.04969971 0.24073242 1.04969971 0.24073242 2.12060547 0.48632812 C14.56285405 3.40181022 14.56285405 3.40181022 19 7 C20.46417335 7.73882781 21.94491081 8.44540627 23.4375 9.125 C32.20452767 13.41746162 40.19972107 19.00040255 47 26 C48.2065625 26.8971875 48.2065625 26.8971875 49.4375 27.8125 C52.91679786 30.78263232 55.35202124 34.2957237 58 38 C58.54011719 38.67546875 59.08023438 39.3509375 59.63671875 40.046875 C61.42633637 42.61079709 61.65121661 44.93070621 62 48 C62.66 48 63.32 48 64 48 C69.00810913 58.49318103 70.49376988 68.88382961 70.375 80.4375 C70.38660156 81.56220703 70.39820313 82.68691406 70.41015625 83.84570312 C70.38227836 91.9349362 69.07124464 99.20059032 67 107 C66.63053723 108.53039079 66.26417191 110.06153622 65.90234375 111.59375 C65.58186049 112.89611225 65.26029131 114.19820788 64.9375 115.5 C64.69676758 116.49386719 64.69676758 116.49386719 64.45117188 117.5078125 C63.55108 121.13709861 62.48530224 124.56730148 61 128 C60.34 128 59.68 128 59 128 C58.92523438 128.82371094 58.85046875 129.64742187 58.7734375 130.49609375 C57.80116126 134.90079975 55.90077706 138.20592211 53.625 142.0625 C53.22539062 142.75666016 52.82578125 143.45082031 52.4140625 144.16601562 C51.63849025 145.50923532 50.85652504 146.84878955 50.06738281 148.18408203 C49.13275891 149.77413981 48.23147807 151.38370029 47.3359375 152.99609375 C46.67464844 153.98802734 46.67464844 153.98802734 46 155 C45.34 155 44.68 155 44 155 C43.731875 155.928125 43.46375 156.85625 43.1875 157.8125 C42.09022755 160.75781025 41.46642831 162.15017877 39 164 C38.34 164 37.68 164 37 164 C36.7525 164.556875 36.505 165.11375 36.25 165.6875 C29.95891784 177.326002 16.12311702 186.40852324 5 193 C5.12117187 193.88558594 5.24234375 194.77117187 5.3671875 195.68359375 C6.31343564 202.67855115 7.20309317 209.67392698 8 216.6875 C8.68203749 222.64809021 9.52185041 228.55427926 10.5625 234.46484375 C10.94868208 236.702631 11.27137307 238.93581519 11.5625 241.1875 C11.70078654 243.89745874 11.70078654 243.89745874 13 245 C13.24506257 248.93176896 13.22867104 252.8676342 13.24023438 256.80639648 C13.2497748 258.7662381 13.28087745 260.72593717 13.3125 262.68554688 C13.35409504 272.89192967 12.5963556 282.24641859 7 291 C6.09692292 292.60009995 5.20071841 294.20410449 4.3125 295.8125 C3.87550781 296.60269531 3.43851563 297.39289063 2.98828125 298.20703125 C2.66214844 298.79871094 2.33601562 299.39039063 2 300 C1.34 300 0.68 300 0 300 C-0.07516846 299.33581055 -0.15033691 298.67162109 -0.2277832 297.98730469 C-0.58114597 294.90719928 -0.94677257 291.82866078 -1.3125 288.75 C-1.48942383 287.18378906 -1.48942383 287.18378906 -1.66992188 285.5859375 C-2.30403036 280.31795935 -3.1173663 275.25224373 -4.48046875 270.12109375 C-6.61358727 262.03790653 -7.45576983 253.79778675 -8.4609375 245.51367188 C-9.23725669 239.46538183 -10.18389847 233.97499767 -12.29541016 228.2590332 C-13.74324566 223.61702976 -14.13158434 218.75239796 -14.6875 213.9375 C-14.81705078 212.88111328 -14.94660156 211.82472656 -15.08007812 210.73632812 C-15.39502445 208.15843412 -15.70147722 205.57983838 -16 203 C-16.66 203 -17.32 203 -18 203 C-17.93941406 203.57854736 -17.87882813 204.15709473 -17.81640625 204.75317383 C-15.61983878 225.98173114 -15.61983878 225.98173114 -16 235 C-16.33 235 -16.66 235 -17 235 C-20.1787052 224.78273328 -22.69380972 215.82343156 -22 205 C-25.63 205 -29.26 205 -33 205 C-32.67 203.68 -32.34 202.36 -32 201 C-28.9375 199.75 -28.9375 199.75 -26 199 C-26.25126361 191.66310251 -27.10659777 184.67592283 -28.875 177.5625 C-29.03645508 176.90121094 -29.19791016 176.23992187 -29.36425781 175.55859375 C-30.16550328 172.48430045 -31.10150703 169.80554982 -32.57421875 166.984375 C-34.73729268 162.45673532 -34.82746495 157.89788554 -35.27734375 152.94921875 C-35.688956 149.86057068 -36.62574722 147.47625609 -37.98828125 144.6796875 C-40.35771181 139.66670843 -40.86374275 134.92154822 -41.25 129.4375 C-41.32734375 128.52419922 -41.4046875 127.61089844 -41.484375 126.66992188 C-41.67055843 124.44735714 -41.84216794 122.22472634 -42 120 C-42.66 120 -43.32 120 -44 120 C-45.70749437 112.35865994 -47.29219853 104.70412372 -48.6875 97 C-48.81874268 96.29496338 -48.94998535 95.58992676 -49.08520508 94.86352539 C-49.79582606 90.85955031 -50.13336771 87.06453986 -50 83 C-50.66 83 -51.32 83 -52 83 C-52.8320582 77.27959989 -53.12036664 71.77759884 -53 66 C-51.05765086 68.9135237 -50.43242004 70.70791938 -49.6328125 74.05078125 C-49.38909912 75.05197998 -49.14538574 76.05317871 -48.89428711 77.0847168 C-48.64042236 78.14988525 -48.38655762 79.21505371 -48.125 80.3125 C-45.69512612 90.29388293 -45.69512612 90.29388293 -42.9375 100.1875 C-40.98660451 106.81730665 -39.42680709 113.52105427 -37.85961914 120.24926758 C-36.66419 125.34032968 -35.36409586 130.36208951 -33.875 135.375 C-32.15094491 141.22989109 -30.92255311 147.10151942 -29.77734375 153.09375 C-28.96181883 157.19186516 -28.03439162 161.24937506 -27.0625 165.3125 C-25.58894675 171.49212453 -24.14435517 177.67696313 -22.75 183.875 C-22.57476807 184.64239502 -22.39953613 185.40979004 -22.21899414 186.20043945 C-21.54876883 189.19703877 -21 191.91888077 -21 195 C-20.34 195 -19.68 195 -19 195 C-19.78682435 190.97820356 -20.58032499 186.95775195 -21.375 182.9375 C-21.59671875 181.80376953 -21.8184375 180.67003906 -22.046875 179.50195312 C-23.37128207 172.71778574 -23.37128207 172.71778574 -25.10546875 166.03125 C-25.9419218 163.19680649 -26.49281492 160.48048112 -26.9375 157.5625 C-28.76059113 146.24237598 -30.79231915 135.30867032 -34.09375 124.31640625 C-35.23278159 120.14813977 -35.86927692 115.97904373 -36.5078125 111.7109375 C-36.9525164 109.26153664 -37.57296983 107.13871003 -38.4375 104.8125 C-40.28005191 99.74082934 -41.06082936 94.51229234 -41.90991211 89.20239258 C-42.64479833 84.68093862 -43.6898584 80.3990156 -45 76 C-45.88362732 72.71574019 -46.72477179 69.42122434 -47.5625 66.125 C-47.89411133 64.85462891 -47.89411133 64.85462891 -48.23242188 63.55859375 C-49.63244473 58.03463651 -50.48964614 52.67696991 -51 47 C-42.98861938 47.26266822 -37.69940356 49.69653169 -31 54 C-29.54787109 54.85658203 -29.54787109 54.85658203 -28.06640625 55.73046875 C-18.42788554 62.28257034 -16.53909227 71.22478407 -14 82 C-13.68546875 83.2478125 -13.3709375 84.495625 -13.046875 85.78125 C-11.35680062 93.00548952 -10.38935855 100.27872456 -9.53125 107.640625 C-8.94803555 112.5660533 -8.23339155 117.46996094 -7.5 122.375 C-7.30796997 123.66712402 -7.30796997 123.66712402 -7.11206055 124.98535156 C-6.47918424 129.15593761 -5.76598417 133.26352214 -4.8125 137.375 C-3.47951004 143.50014396 -3.83835403 149.76764964 -4 156 C-3.34 156 -2.68 156 -2 156 C-0.14289913 164.65479083 1.46588214 173.14101063 2 182 C2.49628906 181.56429687 2.99257812 181.12859375 3.50390625 180.6796875 C4.18324219 180.08414063 4.86257812 179.48859375 5.5625 178.875 C6.29339844 178.22917969 7.02429688 177.58335937 7.77734375 176.91796875 C9.11655706 175.76233828 10.47824957 174.63112144 11.87890625 173.55078125 C17.07426186 169.49445215 19.82655635 164.70734125 23 159 C23.5671875 158.08089844 24.134375 157.16179687 24.71875 156.21484375 C36.5487355 136.93923141 42.082979 115.6955677 42.25 93.1875 C42.26401855 91.89875977 42.26401855 91.89875977 42.27832031 90.58398438 C42.18848517 72.60313551 34.37749168 52.16087723 22 39 C20.7934375 37.700625 20.7934375 37.700625 19.5625 36.375 C0.62053182 18.81902949 -18.44704462 13.05304337 -44 14 C-52.94212092 14.54687675 -60.91446221 16.13138115 -69 20 C-71.24856582 21.06553179 -73.49863915 22.1278866 -75.75 23.1875 C-76.79671875 23.69667969 -77.8434375 24.20585938 -78.921875 24.73046875 C-81.98476256 25.99371552 -84.72263496 26.59278249 -88 27 C-88.495 28.485 -88.495 28.485 -89 30 C-90.70703125 31.4296875 -90.70703125 31.4296875 -92.8125 32.875 C-96.16072952 35.28191233 -98.48929752 37.71011399 -101 41 C-101.75152344 41.57234375 -102.50304687 42.1446875 -103.27734375 42.734375 C-106.48347906 45.40232117 -108.85186436 48.32530871 -111.375 51.625 C-111.85251709 52.24383057 -112.33003418 52.86266113 -112.82202148 53.50024414 C-114.22362728 55.32689417 -115.61355805 57.16182483 -117 59 C-118.08861328 60.43279297 -118.08861328 60.43279297 -119.19921875 61.89453125 C-122.95720239 67.00569692 -122.95720239 67.00569692 -125.1875 72.875 C-126 76 -126 76 -127.92578125 77.8671875 C-130.2681793 80.27575499 -130.98334088 82.07294026 -132 85.25 C-133.1225589 88.58698172 -134.25744541 91.63122262 -136 94.6875 C-140.70647684 103.72986495 -142.22087438 115.0416878 -143.5078125 125.03515625 C-144 128 -144 128 -144.953125 131.25 C-146.21739845 135.77874073 -146.93271503 140.29283298 -147.625 144.9375 C-147.7590625 145.81212891 -147.893125 146.68675781 -148.03125 147.58789062 C-148.35818576 149.72464934 -148.67965679 151.86224299 -149 154 C-149.33 154 -149.66 154 -150 154 C-150.20638953 130.00483611 -150.20638953 130.00483611 -149 121 C-148.34 121 -147.68 121 -147 121 C-147.04125 119.845 -147.0825 118.69 -147.125 117.5 C-147.13475387 112.00857255 -145.73314234 107.19942701 -144 102 C-144.66 102 -145.32 102 -146 102 C-146.17015625 102.58265625 -146.3403125 103.1653125 -146.515625 103.765625 C-146.75796875 104.58546875 -147.0003125 105.4053125 -147.25 106.25 C-147.52199219 107.17554688 -147.79398438 108.10109375 -148.07421875 109.0546875 C-148.66470191 110.93327107 -149.30843255 112.79648867 -150.01953125 114.6328125 C-152.69983032 121.67989095 -153.59474103 128.31895046 -154.20678711 135.76611328 C-155.13334235 146.61076754 -157.09509921 157.29151844 -159 168 C-169.44955449 166.6673393 -177.0048247 162.69247693 -183.80078125 154.68359375 C-186.54558354 150.83014168 -186.44644992 146.53377595 -186 142 C-185.36742555 139.48202508 -184.59749324 137.04106581 -183.7890625 134.57421875 C-183.01086033 132.03543049 -182.47757266 129.54796075 -182 126.9375 C-181.099826 122.12385769 -179.66622406 117.5987784 -178 113 C-177.34 113 -176.68 113 -176 113 C-175.87625 111.515 -175.87625 111.515 -175.75 110 C-175.22113265 106.31261931 -173.90453078 103.59088993 -172.15234375 100.3359375 C-170.81205061 97.61900428 -169.83050646 94.85323609 -168.8125 92 C-163.9870645 79.25022548 -156.58827159 66.60370107 -148 56 C-147.34 56 -146.68 56 -146 56 C-145.80019531 55.32066406 -145.60039062 54.64132813 -145.39453125 53.94140625 C-143.48812952 49.92034042 -140.74746447 47.13061361 -137.6875 43.9375 C-137.06955566 43.28571777 -136.45161133 42.63393555 -135.81494141 41.96240234 C-131.60911481 37.57050562 -127.30714846 33.28833946 -122.875 29.125 C-122.07775513 28.3669104 -122.07775513 28.3669104 -121.2644043 27.59350586 C-118.64491122 25.1874374 -116.61334946 23.39764133 -113 23 C-113 22.34 -113 21.68 -113 21 C-108.09006501 18.11180295 -103.41564073 15.80521358 -98 14 C-98 13.34 -98 12.68 -98 12 C-95.03 11.505 -95.03 11.505 -92 11 C-92 10.34 -92 9.68 -92 9 C-91.2265625 8.82984375 -90.453125 8.6596875 -89.65625 8.484375 C-82.59906877 6.876315 -82.59906877 6.876315 -76 4 C-55.14260024 -7.06202173 -22.40727995 -5.21376246 0 0 Z " fill="#262425" transform="translate(221,53)"/>
<path d="M0 0 C1.74489568 2.96060169 3.38312733 5.96779119 5 9 C5.40347656 9.68835938 5.80695313 10.37671875 6.22265625 11.0859375 C10.68002311 19.93676631 9.3458202 30.36225708 9 40 C8.34 40 7.68 40 7 40 C6.9175 40.94875 6.835 41.8975 6.75 42.875 C6.37875 44.421875 6.37875 44.421875 6 46 C4 47.125 4 47.125 2 48 C1.62318604 49.3217035 1.29662251 50.65802236 1 52 C-1.16692572 57.34295901 -3.74745172 61.05120517 -8 65 C-9.01165444 66.17758717 -10.01113102 67.36571498 -11 68.5625 C-13.42664748 71.4382956 -15.99128858 73.72313731 -19 76 C-20.80143822 77.72637829 -22.4595333 79.51359604 -24.125 81.375 C-27.16785521 84.15325911 -30.13210597 85.84380101 -33.75 87.75390625 C-35.76310653 88.86880379 -37.53977333 90.05666839 -39.375 91.4375 C-48.56498379 98.18672597 -59.16646631 102.6295673 -70 106 C-71.093125 106.350625 -72.18625 106.70125 -73.3125 107.0625 C-80.65208559 108.92849634 -88.01911181 109.16170749 -95.5625 109.125 C-96.36107422 109.12886719 -97.15964844 109.13273437 -97.98242188 109.13671875 C-108.57664122 109.11945026 -114.79160793 107.89271111 -122.61328125 100.46875 C-126.48540316 96.01853665 -126.62588902 91.66420638 -126.34765625 85.9140625 C-124.27250697 68.52011458 -107.91184271 53.47599153 -95 43 C-91.42436638 40.30695312 -87.77530383 37.72102402 -84.1015625 35.1640625 C-82.28791142 33.8986183 -80.49736491 32.5961283 -78.7734375 31.2109375 C-77 30 -77 30 -74 30 C-74 29.34 -74 28.68 -74 28 C-72.5437455 27.32880451 -71.08492133 26.66318193 -69.625 26 C-68.81289063 25.62875 -68.00078125 25.2575 -67.1640625 24.875 C-65 24 -65 24 -63 24 C-63 23.34 -63 22.68 -63 22 C-62.42894531 21.78085938 -61.85789062 21.56171875 -61.26953125 21.3359375 C-56.35385079 19.41342972 -51.53422336 17.35568083 -46.75 15.125 C-35.31665433 9.81713964 -24.20654073 5.22381628 -12 2 C-10.81277344 1.63390625 -9.62554687 1.2678125 -8.40234375 0.890625 C-5.39686566 0.10388676 -3.07574399 -0.18640873 0 0 Z " fill="#FCFBFB" transform="translate(461,184)"/>
<path d="M0 0 C1.94234914 2.9135237 2.56757996 4.70791938 3.3671875 8.05078125 C3.73275757 9.55257935 3.73275757 9.55257935 4.10571289 11.0847168 C4.35957764 12.14988525 4.61344238 13.21505371 4.875 14.3125 C7.30487388 24.29388293 7.30487388 24.29388293 10.0625 34.1875 C12.01339549 40.81730665 13.57319291 47.52105427 15.14038086 54.24926758 C16.33581 59.34032968 17.63590414 64.36208951 19.125 69.375 C20.84905509 75.22989109 22.07744689 81.10151942 23.22265625 87.09375 C24.03818117 91.19186516 24.96560838 95.24937506 25.9375 99.3125 C27.41105325 105.49212453 28.85564483 111.67696313 30.25 117.875 C30.42523193 118.64239502 30.60046387 119.40979004 30.78100586 120.20043945 C31.45123117 123.19703877 32 125.91888077 32 129 C32.66 129 33.32 129 34 129 C34 127.02 34 125.04 34 123 C34.33 123 34.66 123 35 123 C35 125.31 35 127.62 35 130 C34.01 130 33.02 130 32 130 C32 130.66 32 131.32 32 132 C32.66 132 33.32 132 34 132 C34 132.66 34 133.32 34 134 C34.66 134.33 35.32 134.66 36 135 C36.33 135.66 36.66 136.32 37 137 C36.34 137 35.68 137 35 137 C35.06058594 137.57854736 35.12117188 138.15709473 35.18359375 138.75317383 C37.38016122 159.98173114 37.38016122 159.98173114 37 169 C36.67 169 36.34 169 36 169 C32.8212948 158.78273328 30.30619028 149.82343156 31 139 C27.37 139 23.74 139 20 139 C20.33 137.68 20.66 136.36 21 135 C24.0625 133.75 24.0625 133.75 27 133 C26.74873639 125.66310251 25.89340223 118.67592283 24.125 111.5625 C23.96354492 110.90121094 23.80208984 110.23992187 23.63574219 109.55859375 C22.83449672 106.48430045 21.89849297 103.80554982 20.42578125 100.984375 C18.26270732 96.45673532 18.17253505 91.89788554 17.72265625 86.94921875 C17.311044 83.86057068 16.37425278 81.47625609 15.01171875 78.6796875 C12.64228819 73.66670843 12.13625725 68.92154822 11.75 63.4375 C11.67265625 62.52419922 11.5953125 61.61089844 11.515625 60.66992188 C11.32944157 58.44735714 11.15783206 56.22472634 11 54 C10.34 54 9.68 54 9 54 C7.29250563 46.35865994 5.70780147 38.70412372 4.3125 31 C4.18125732 30.29496338 4.05001465 29.58992676 3.91479492 28.86352539 C3.20417394 24.85955031 2.86663229 21.06453986 3 17 C2.34 17 1.68 17 1 17 C0.1679418 11.27959989 -0.12036664 5.77759884 0 0 Z " fill="#383737" transform="translate(168,119)"/>
<path d="M0 0 C6.625 -0.25 6.625 -0.25 10 2 C7.03 1.67 4.06 1.34 1 1 C1.32613281 2.35351562 1.65226563 3.70703125 1.98828125 5.1015625 C4.21464597 14.37708737 6.41502715 23.64534762 8.32421875 32.9921875 C8.80592584 35.13620174 9.3700838 37.26238071 9.98828125 39.37109375 C11.2708698 43.97157544 12.06475139 48.59753164 12.85546875 53.30273438 C13.49176594 56.89815559 14.35342657 59.77142466 16 63 C16.53206942 65.34277688 17.00494365 67.69932493 17.4375 70.0625 C18.28892447 74.57646152 19.21856253 79.02291436 20.5 83.4375 C23.06586179 92.46503466 24.51397969 101.79713098 25.9375 111.0625 C26.67879933 115.64734293 27.76762321 120.08888805 29 124.5625 C33.44577856 140.75309656 33.44577856 140.75309656 33 149 C32.34 149 31.68 149 31 149 C29.55296637 142.93407074 28.10909812 136.86739553 26.66699219 130.80029297 C26.07512017 128.31538373 25.47968601 125.83136761 24.8828125 123.34765625 C23.3098703 116.7711242 21.82393138 110.20791781 20.5625 103.5625 C19.32587162 97.21133792 17.68617462 91.04845189 15.90649414 84.83447266 C14.45298514 79.73060603 13.17160131 74.61286946 12 69.4375 C10.55924996 63.10140797 8.83758439 56.90165508 6.93017578 50.69116211 C5.69257295 46.58715733 4.62213516 42.47840637 3.67578125 38.296875 C3.45784912 37.33426758 3.23991699 36.37166016 3.01538086 35.37988281 C2.59424644 33.48598207 2.18455942 31.58949306 1.78735352 29.69042969 C1.59713623 28.83352539 1.40691895 27.97662109 1.2109375 27.09375 C1.04899902 26.32740234 0.88706055 25.56105469 0.72021484 24.77148438 C0.48254395 24.18689453 0.24487305 23.60230469 0 23 C-0.99 22.67 -1.98 22.34 -3 22 C-3 19.03 -3 16.06 -3 13 C-2.01 13 -1.02 13 0 13 C0 8.71 0 4.42 0 0 Z " fill="#CFCFCF" transform="translate(169,99)"/>
<path d="M0 0 C0 0.66 0 1.32 0 2 C1.0828125 2.3403125 1.0828125 2.3403125 2.1875 2.6875 C5.84239037 4.3931155 7.63300101 5.68620142 10 9 C10.91528591 14.2471132 10.89113079 18.51478202 8.125 23.125 C4.81027784 26.04975485 2.90851463 26.1365432 -1.4375 26.125 C-2.40558594 26.12757813 -3.37367188 26.13015625 -4.37109375 26.1328125 C-7 26 -7 26 -10 25 C-13.61262265 20.37245995 -14.7229679 15.18196037 -14.4375 9.41015625 C-12.87248458 0.78859809 -8.18091953 -1.12287131 0 0 Z " fill="#2B2A2B" transform="translate(275,296)"/>
<path d="M0 0 C4.43041256 2.13609177 7.16159481 4.40398702 9 9 C9.38772589 12.05334142 9.57905065 14.96849955 9 18 C7.4765625 19.7734375 7.4765625 19.7734375 6 21 C5.67 19.02 5.34 17.04 5 15 C4.75507812 15.5775 4.51015625 16.155 4.2578125 16.75 C3.03031556 19.18806289 1.91136684 21.04191086 0 23 C-3.51053953 24.04165189 -6.46525681 23.8938431 -10 23 C-13.34625024 20.47323961 -14.67977847 18.96066458 -16 15 C-16.52482505 9.61045043 -16.55572612 5.3762783 -13 1 C-9.05100663 -0.97449669 -4.30409896 -0.43770498 0 0 Z " fill="#292829" transform="translate(534,223)"/>
<path d="M0 0 C-1 2 -1 2 -2.78515625 2.78125 C-3.53667969 3.0184375 -4.28820312 3.255625 -5.0625 3.5 C-5.88105469 3.76039062 -6.69960938 4.02078125 -7.54296875 4.2890625 C-9.63310484 4.89383956 -11.75256407 5.39574027 -13.875 5.875 C-18.26857318 6.91443381 -22.16534829 8.83695911 -26.234375 10.7578125 C-30.07731248 12.48387764 -33.98008721 13.74789602 -38 15 C-38 15.66 -38 16.32 -38 17 C-39.6796875 18.2890625 -39.6796875 18.2890625 -41.875 19.625 C-42.59429687 20.07101563 -43.31359375 20.51703125 -44.0546875 20.9765625 C-46 22 -46 22 -48 22 C-47.67 22.99 -47.34 23.98 -47 25 C-52.75 30 -52.75 30 -55 30 C-55.33 30.99 -55.66 31.98 -56 33 C-56.66 33 -57.32 33 -58 33 C-58.33 33.99 -58.66 34.98 -59 36 C-59.66 36 -60.32 36 -61 36 C-61.33 36.99 -61.66 37.98 -62 39 C-62.66 39 -63.32 39 -64 39 C-64.33 39.99 -64.66 40.98 -65 42 C-66.65 41.67 -68.3 41.34 -70 41 C-69.58680682 36.10455901 -67.15189219 33.45883688 -63.875 30.0625 C-63.37943604 29.53688477 -62.88387207 29.01126953 -62.37329102 28.46972656 C-58.78489231 24.70695255 -55.13410653 21.16654968 -51 18 C-50.34 18 -49.68 18 -49 18 C-49 17.34 -49 16.68 -49 16 C-48.51120361 15.74307373 -48.02240723 15.48614746 -47.51879883 15.22143555 C-45.28258238 14.04493943 -43.04753503 12.86623884 -40.8125 11.6875 C-40.04357422 11.28337891 -39.27464844 10.87925781 -38.48242188 10.46289062 C-35.33116869 8.79935353 -32.22267255 7.13650661 -29.18359375 5.2734375 C-25.98945056 3.41066348 -22.57241581 2.78025688 -19 2 C-18.28585937 1.81308594 -17.57171875 1.62617187 -16.8359375 1.43359375 C-11.16025122 -0.00036939 -5.83853004 -0.21940196 0 0 Z " fill="#444344" transform="translate(403,34)"/>
<path d="M0 0 C0.66 0 1.32 0 2 0 C2 1.32 2 2.64 2 4 C3.32 3.34 4.64 2.68 6 2 C4.66167432 6.37997496 3.32452516 10.56595753 1.0625 14.5625 C-3.6700705 23.66499193 -5.21213705 34.97383973 -6.5078125 45.03515625 C-7 48 -7 48 -7.953125 51.25 C-9.21739845 55.77874073 -9.93271503 60.29283298 -10.625 64.9375 C-10.7590625 65.81212891 -10.893125 66.68675781 -11.03125 67.58789062 C-11.35818576 69.72464934 -11.67965679 71.86224299 -12 74 C-12.33 74 -12.66 74 -13 74 C-13.20638953 50.00483611 -13.20638953 50.00483611 -12 41 C-11.34 41 -10.68 41 -10 41 C-10.061875 39.2675 -10.061875 39.2675 -10.125 37.5 C-10.13475387 32.00857255 -8.73314234 27.19942701 -7 22 C-7.66 22 -8.32 22 -9 22 C-7.09346774 14.37387096 -4.37169072 6.55753608 0 0 Z " fill="#4E4D4E" transform="translate(84,133)"/>
<path d="M0 0 C3.4380822 -0.00438251 6.87488676 -0.04085349 10.31274414 -0.07861328 C22.94139779 -0.14072085 34.40634688 0.64851034 46.51000977 4.37060547 C46.51000977 4.70060547 46.51000977 5.03060547 46.51000977 5.37060547 C45.89043396 5.36838486 45.27085815 5.36616425 44.63250732 5.36387634 C38.07654407 5.34143673 31.52059202 5.32654107 24.96459961 5.31567383 C22.53067582 5.3107014 20.09675492 5.3039211 17.6628418 5.29516602 C-1.40363076 5.22187266 -1.40363076 5.22187266 -20.43951416 6.1938324 C-24.4869984 6.47232576 -26.97561812 6.37202526 -30.48999023 4.37060547 C-32.95848694 4.21825505 -32.95848694 4.21825505 -35.58764648 4.46435547 C-37.036875 4.55523437 -37.036875 4.55523437 -38.51538086 4.64794922 C-39.51762695 4.72142578 -40.51987305 4.79490234 -41.55249023 4.87060547 C-43.54267558 5.01594892 -45.53358335 5.15180074 -47.52514648 5.27685547 C-48.84591187 5.37450195 -48.84591187 5.37450195 -50.19335938 5.47412109 C-52.48999023 5.37060547 -52.48999023 5.37060547 -55.48999023 3.37060547 C-55.15999023 2.71060547 -54.82999023 2.05060547 -54.48999023 1.37060547 C-54.15999023 1.70060547 -53.82999023 2.03060547 -53.48999023 2.37060547 C-51.30547911 2.50088838 -49.11585317 2.54669586 -46.92749023 2.55810547 C-45.13118164 2.579375 -45.13118164 2.579375 -43.29858398 2.60107422 C-39.33331893 2.50952409 -35.50647985 1.95473895 -31.58374023 1.38232422 C-21.09556902 -0.05437162 -10.56888736 -0.00150479 0 0 Z " fill="#525051" transform="translate(529.489990234375,169.62939453125)"/>
<path d="M0 0 C0 0.99 0 1.98 0 3 C-1.051875 3.27263672 -1.051875 3.27263672 -2.125 3.55078125 C-6.61647397 4.74077775 -11.04113817 5.93960929 -15.375 7.625 C-18.30342963 8.73578365 -20.9212273 9.51894177 -24 10 C-24 10.66 -24 11.32 -24 12 C-28.455 12.495 -28.455 12.495 -33 13 C-33 13.66 -33 14.32 -33 15 C-35.64 15.99 -38.28 16.98 -41 18 C-39.68 18.33 -38.36 18.66 -37 19 C-36.34 19.33 -35.68 19.66 -35 20 C-42.55406899 24.01880768 -49.44798884 27.67296379 -58 29 C-58 29.66 -58 30.32 -58 31 C-59.32 31.33 -60.64 31.66 -62 32 C-62 31.34 -62 30.68 -62 30 C-62.66 29.34 -63.32 28.68 -64 28 C-57.85714286 22.42857143 -57.85714286 22.42857143 -53 22 C-53 21.34 -53 20.68 -53 20 C-48.02699985 17.64767387 -43.05051965 15.3030806 -38.06835938 12.97021484 C-36.40287341 12.18897768 -34.74006404 11.40203574 -33.078125 10.61328125 C-29.0424727 8.74157355 -25.48460159 7.45995914 -21 7 C-21 6.34 -21 5.68 -21 5 C-5.34722222 -0.32407407 -5.34722222 -0.32407407 0 0 Z " fill="#676566" transform="translate(456,177)"/>
<path d="M0 0 C2.33605209 0.31855256 4.66783272 0.65449374 7 1 C8.39605469 1.20109375 8.39605469 1.20109375 9.8203125 1.40625 C16.17323617 2.3811232 21.96454992 3.78700164 28 6 C27.360625 6.103125 26.72125 6.20625 26.0625 6.3125 C25.381875 6.539375 24.70125 6.76625 24 7 C23.67 7.99 23.34 8.98 23 10 C22.34 10.33 21.68 10.66 21 11 C22.65 11.99 24.3 12.98 26 14 C24 15 24 15 21.9765625 14.51171875 C20.81253906 14.10373047 20.81253906 14.10373047 19.625 13.6875 C18.46871094 13.29111328 18.46871094 13.29111328 17.2890625 12.88671875 C15 12 15 12 13.19921875 10.95703125 C9.97724491 9.55492896 6.64919847 9.34521093 3.1875 9 C-0.79319755 8.59632363 -4.49228711 8.15142314 -8.33984375 7.00390625 C-13.11946239 5.69295429 -17.82183596 5.33052279 -22.75 4.9375 C-24.62005872 4.78315 -26.48986754 4.62573308 -28.359375 4.46484375 C-29.17889648 4.399021 -29.99841797 4.33319824 -30.84277344 4.26538086 C-33 4 -33 4 -36 3 C-38.56634861 2.77281504 -41.11678107 2.58391816 -43.6875 2.4375 C-44.38939453 2.39431641 -45.09128906 2.35113281 -45.81445312 2.30664062 C-47.54275206 2.2008264 -49.2713511 2.09993419 -51 2 C-51 1.67 -51 1.34 -51 1 C-43.74 1 -36.48 1 -29 1 C-29 1.66 -29 2.32 -29 3 C-28.12432373 3.029729 -28.12432373 3.029729 -27.23095703 3.06005859 C-24.52859732 3.15662861 -21.82687606 3.26575973 -19.125 3.375 C-18.2071875 3.4059375 -17.289375 3.436875 -16.34375 3.46875 C-10.06145511 3.73419908 -4.125489 4.58309564 2 6 C1.505 4.7934375 1.505 4.7934375 1 3.5625 C0 1 0 1 0 0 Z " fill="#333131" transform="translate(387,133)"/>
<path d="M0 0 C6.48409669 9.72614503 7.18692166 24.66838483 8.9375 36.0625 C9.67879933 40.64734293 10.76762321 45.08888805 12 49.5625 C16.44577856 65.75309656 16.44577856 65.75309656 16 74 C15.34 74 14.68 74 14 74 C12.55296637 67.93407074 11.10909812 61.86739553 9.66699219 55.80029297 C9.07512017 53.31538373 8.47968601 50.83136761 7.8828125 48.34765625 C5.98895165 40.43148014 4.27130533 32.51315308 2.73046875 24.51953125 C1.82428408 20.15336876 0.67789906 15.87264672 -0.546875 11.5859375 C-1.05034302 8.7126976 -0.67417996 6.81515686 0 4 C0 2.68 0 1.36 0 0 Z " fill="#A9A9A9" transform="translate(186,174)"/>
<path d="M0 0 C0.66 0 1.32 0 2 0 C3.43906817 5.0367386 4.26694704 9.91854649 4.875 15.125 C5.69144079 21.75609229 7.21541801 27.70942551 9.29296875 34.07421875 C9.98561351 36.94046695 10.03512208 38.29022181 9 41 C7.515 37.535 7.515 37.535 6 34 C5.67 37.63 5.34 41.26 5 45 C4.01 45 3.02 45 2 45 C-0.1543038 40.5600324 -0.41745846 36.52581226 -0.625 31.6875 C-0.66367188 30.94693359 -0.70234375 30.20636719 -0.7421875 29.44335938 C-0.83581705 27.62928691 -0.91896851 25.81467884 -1 24 C-0.34 24.99 0.32 25.98 1 27 C0.9278125 26.05640625 0.855625 25.1128125 0.78125 24.140625 C0.19816667 16.07463888 -0.13563456 8.09286195 0 0 Z " fill="#DDDCDC" transform="translate(203,256)"/>
<path d="M0 0 C0.66 0 1.32 0 2 0 C1.34 1.65 0.68 3.3 0 5 C1.65 5 3.3 5 5 5 C5 5.33 5 5.66 5 6 C4.32195312 6.09796875 3.64390625 6.1959375 2.9453125 6.296875 C-2.85754578 7.22919018 -7.93403476 8.61525534 -13.328125 10.92578125 C-17.44774545 12.5820614 -21.69124159 13.78566809 -25.9453125 15.046875 C-28.53640558 15.85534906 -30.99623809 16.7732026 -33.5 17.8125 C-36.99373645 18.99787487 -38.56274635 19.18155594 -42 18 C-40.02579865 15.47740939 -39.03254358 15.0070192 -35.8125 14.3125 C-34.884375 14.209375 -33.95625 14.10625 -33 14 C-33 13.34 -33 12.68 -33 12 C-28.545 11.505 -28.545 11.505 -24 11 C-24 10.34 -24 9.68 -24 9 C-16.17236846 4.78512148 -8.82827239 2.70065654 0 2 C0 1.34 0 0.68 0 0 Z " fill="#2A2829" transform="translate(456,178)"/>
<path d="M0 0 C3.4610078 0.2192655 6.91756281 0.48058931 10.375 0.75 C11.35984375 0.811875 12.3446875 0.87375 13.359375 0.9375 C14.30039062 1.01484375 15.24140625 1.0921875 16.2109375 1.171875 C17.08024902 1.2347168 17.94956055 1.29755859 18.84521484 1.36230469 C21 2 21 2 22.29931641 4.05175781 C22.53054199 4.69467773 22.76176758 5.33759766 23 6 C22.0406958 5.9292627 21.0813916 5.85852539 20.09301758 5.78564453 C6.59485863 4.87428169 -6.88753672 4.84751782 -20.41186523 4.86962891 C-24.29479909 4.87497563 -28.17761657 4.86966079 -32.06054688 4.86328125 C-46.40378027 4.85985485 -60.6819302 5.13546075 -75 6 C-74.67 5.34 -74.34 4.68 -74 4 C-70.01754433 3.22917256 -65.91880733 3.13125689 -61.875 2.875 C-60.59157715 2.79008301 -59.3081543 2.70516602 -57.98583984 2.61767578 C-37.69563692 1.39693513 -17.31566707 1.83201649 3 2 C2.01 1.34 1.02 0.68 0 0 Z " fill="#D1CFD0" transform="translate(567,172)"/>
<path d="M0 0 C0.6875 2.0625 0.6875 2.0625 1 4 C-4.75 9 -4.75 9 -7 9 C-7.33 9.99 -7.66 10.98 -8 12 C-8.66 12 -9.32 12 -10 12 C-10.33 12.99 -10.66 13.98 -11 15 C-11.66 15 -12.32 15 -13 15 C-13.33 15.99 -13.66 16.98 -14 18 C-14.66 18 -15.32 18 -16 18 C-16.33 18.99 -16.66 19.98 -17 21 C-18.65 20.67 -20.3 20.34 -22 20 C-21.6120658 14.99380145 -18.97517755 12.31966973 -15.625 8.875 C-15.13 8.35035156 -14.635 7.82570313 -14.125 7.28515625 C-12.76184597 5.84546149 -11.38154325 4.42205772 -10 3 C-9.14535156 2.09894531 -9.14535156 2.09894531 -8.2734375 1.1796875 C-5.54264809 -1.3500622 -3.38974772 -1.12991591 0 0 Z " fill="#252424" transform="translate(355,55)"/>
<path d="M0 0 C1.94234914 2.9135237 2.56757996 4.70791938 3.3671875 8.05078125 C3.73336182 9.55463379 3.73336182 9.55463379 4.10693359 11.08886719 C4.36039551 12.15266602 4.61385742 13.21646484 4.875 14.3125 C6.84125999 22.4068766 8.89839412 30.4240198 11.3359375 38.390625 C12 41 12 41 12 45 C11.34 45 10.68 45 10 45 C10 47.97 10 50.94 10 54 C8.43335804 50.86671608 7.67110655 49.08738284 7.0625 45.8125 C6.90136719 44.94753906 6.74023438 44.08257812 6.57421875 43.19140625 C6.38472656 42.13824219 6.19523438 41.08507812 6 40 C5.73596783 38.59239335 5.47162277 37.18484537 5.20703125 35.77734375 C4.92897894 34.26835956 4.6516379 32.75924413 4.375 31.25 C4.239729 30.52917236 4.10445801 29.80834473 3.96508789 29.06567383 C3.23379727 24.9910713 2.85685468 21.138201 3 17 C2.34 17 1.68 17 1 17 C0.1679418 11.27959989 -0.12036664 5.77759884 0 0 Z " fill="#504E4E" transform="translate(168,119)"/>
<path d="M0 0 C0.66 0 1.32 0 2 0 C3.33333333 4 4.66666667 8 6 12 C6.25225342 12.67554932 6.50450684 13.35109863 6.7644043 14.04711914 C8.8728135 19.86668973 9.69540491 25.40905402 10.1875 31.5625 C10.3102832 32.93245117 10.3102832 32.93245117 10.43554688 34.33007812 C10.63337481 36.55273313 10.82135324 38.77573555 11 41 C10.01 40.67 9.02 40.34 8 40 C7.24804688 38.13330078 7.24804688 38.13330078 6.71875 35.6953125 C6.51789795 34.80674561 6.3170459 33.91817871 6.11010742 33.00268555 C5.90877197 32.05304932 5.70743652 31.10341309 5.5 30.125 C5.07058208 28.19626399 4.63960736 26.2678739 4.20703125 24.33984375 C4.00158691 23.41284668 3.79614258 22.48584961 3.58447266 21.53076172 C2.89551404 18.54757665 2.0652381 15.62022683 1.1875 12.6875 C-0.05493204 8.318048 -0.25638572 4.52948107 0 0 Z " fill="#D0CECF" transform="translate(176,141)"/>
<path d="M0 0 C0.68835938 0.05220703 1.37671875 0.10441406 2.0859375 0.15820312 C3.76612758 0.28655098 5.44564749 0.42362225 7.125 0.5625 C7.125 0.8925 7.125 1.2225 7.125 1.5625 C6.21621094 1.64886719 5.30742187 1.73523437 4.37109375 1.82421875 C-4.18826184 2.78111081 -11.73688382 4.58593017 -19.828125 7.5390625 C-22.875 8.5625 -22.875 8.5625 -25.875 8.5625 C-25.875 9.2225 -25.875 9.8825 -25.875 10.5625 C-26.926875 10.995625 -27.97875 11.42875 -29.0625 11.875 C-33.13950556 13.6222881 -36.77240278 15.8536875 -40.5 18.25 C-42.875 19.5625 -42.875 19.5625 -45.875 19.5625 C-45.875 18.9025 -45.875 18.2425 -45.875 17.5625 C-44.1953125 16.2734375 -44.1953125 16.2734375 -42 14.9375 C-41.28070313 14.49148437 -40.56140625 14.04546875 -39.8203125 13.5859375 C-37.875 12.5625 -37.875 12.5625 -35.875 12.5625 C-35.875 11.9025 -35.875 11.2425 -35.875 10.5625 C-32.50058721 8.13714081 -28.92991133 6.76863819 -25.0546875 5.38671875 C-22.00701305 4.23428271 -19.08520869 2.83802759 -16.1484375 1.4296875 C-10.77059753 -0.62165352 -5.64995087 -0.476304 0 0 Z " fill="#DCDADA" transform="translate(400.875,38.4375)"/>
<path d="M0 0 C-0.99 0.495 -0.99 0.495 -2 1 C-1.93941406 1.57854736 -1.87882813 2.15709473 -1.81640625 2.75317383 C0.38016122 23.98173114 0.38016122 23.98173114 0 33 C-0.33 33 -0.66 33 -1 33 C-4.1787052 22.78273328 -6.69380972 13.82343156 -6 3 C-9.63 3 -13.26 3 -17 3 C-16.67 2.34 -16.34 1.68 -16 1 C-14.39125 1.061875 -14.39125 1.061875 -12.75 1.125 C-9.1635769 1.26647205 -9.1635769 1.26647205 -6.875 -0.0625 C-4.30252959 -1.3487352 -2.7007861 -0.75021836 0 0 Z " fill="#414040" transform="translate(205,255)"/>
<path d="M0 0 C0.66 0 1.32 0 2 0 C2.26554688 0.86882812 2.53109375 1.73765625 2.8046875 2.6328125 C3.15789062 3.78523437 3.51109375 4.93765625 3.875 6.125 C4.22304687 7.26195312 4.57109375 8.39890625 4.9296875 9.5703125 C5.62543962 11.79976637 6.35303897 14.01961605 7.1171875 16.2265625 C8.10554681 19.3315851 8.29448229 21.76069482 8 25 C7.34 25.66 6.68 26.32 6 27 C5.34 27.99 4.68 28.98 4 30 C1.6694187 27.6694187 1.90598279 22.64712839 1.4375 19.5 C1.29892578 18.62601563 1.16035156 17.75203125 1.01757812 16.8515625 C0.16171665 11.16830502 -0.13431853 5.74649702 0 0 Z " fill="#232323" transform="translate(178,164)"/>
<path d="M0 0 C-1 2 -1 2 -2.78515625 2.78125 C-3.53667969 3.0184375 -4.28820312 3.255625 -5.0625 3.5 C-5.87847656 3.7578125 -6.69445312 4.015625 -7.53515625 4.28125 C-10.32405465 5.09449454 -13.12505447 5.79526275 -15.953125 6.45703125 C-19.01539604 7.26935124 -21.96142811 8.3882398 -24.921875 9.51171875 C-27.30595632 10.07188823 -28.70286148 9.77088658 -31 9 C-21.26784472 1.3485124 -12.09665966 -0.2190542 0 0 Z " fill="#302E2F" transform="translate(403,34)"/>
<path d="M0 0 C1.75280273 -0.01836914 1.75280273 -0.01836914 3.54101562 -0.03710938 C9.90798821 -0.04788259 15.33873134 0.38325235 21.4375 2.1875 C23.09841542 2.43758102 24.76519588 2.65572149 26.4375 2.8125 C27.5821875 2.92464844 27.5821875 2.92464844 28.75 3.0390625 C29.306875 3.08804688 29.86375 3.13703125 30.4375 3.1875 C30.4375 3.8475 30.4375 4.5075 30.4375 5.1875 C29.45394531 5.043125 28.47039062 4.89875 27.45703125 4.75 C10.44611135 2.41378097 -6.47926532 2.8343725 -23.5625 4.1875 C-23.2325 3.5275 -22.9025 2.8675 -22.5625 2.1875 C-20.53125 1.80859375 -20.53125 1.80859375 -18.0625 1.625 C-11.92929322 1.14948239 -6.57955896 0.00354693 0 0 Z " fill="#BBBABA" transform="translate(190.5625,47.8125)"/>
<path d="M0 0 C0.66 0 1.32 0 2 0 C1.86722656 0.70125 1.73445313 1.4025 1.59765625 2.125 C0.55238798 7.7404558 -0.3574719 13.32433509 -1 19 C-1.66 19 -2.32 19 -3 19 C-3 22.63 -3 26.26 -3 30 C-3.33 30 -3.66 30 -4 30 C-4.33 27.69 -4.66 25.38 -5 23 C-5.99 25.97 -6.98 28.94 -8 32 C-9.10561231 27.57755075 -8.49754308 24.7644545 -7.375 20.5 C-7.19549805 19.79746094 -7.01599609 19.09492188 -6.83105469 18.37109375 C-5.13351656 11.99737307 -2.76670497 5.98696813 0 0 Z " fill="#B8B7B7" transform="translate(75,155)"/>
<path d="M0 0 C0 0.99 0 1.98 0 3 C-0.70125 3.18175781 -1.4025 3.36351562 -2.125 3.55078125 C-7.24806865 4.90811601 -12.21550594 6.38725537 -17.15625 8.30078125 C-25.92985318 11.62805873 -25.92985318 11.62805873 -30 10 C-26.55930376 7.70620251 -25.27709699 7 -21 7 C-21 6.34 -21 5.68 -21 5 C-5.34722222 -0.32407407 -5.34722222 -0.32407407 0 0 Z " fill="#B2B1B1" transform="translate(456,177)"/>
<path d="M0 0 C7.26 0 14.52 0 22 0 C22 0.66 22 1.32 22 2 C22.82854492 2.01401855 22.82854492 2.01401855 23.67382812 2.02832031 C35.97674141 2.28824102 47.21062244 3.41482861 59 7 C56.04601526 7.88686224 53.74483723 8.05133942 50.6875 7.6875 C49.96949219 7.60886719 49.25148438 7.53023437 48.51171875 7.44921875 C46 7 46 7 42.87890625 6.0234375 C38.09254985 4.60862694 33.20578161 4.3327253 28.25 3.9375 C26.37994128 3.78315 24.51013246 3.62573308 22.640625 3.46484375 C21.82110352 3.399021 21.00158203 3.33319824 20.15722656 3.26538086 C18 3 18 3 15 2 C12.43365139 1.77281504 9.88321893 1.58391816 7.3125 1.4375 C6.61060547 1.39431641 5.90871094 1.35113281 5.18554688 1.30664062 C3.45724794 1.2008264 1.7286489 1.09993419 0 1 C0 0.67 0 0.34 0 0 Z " fill="#999999" transform="translate(336,134)"/>
<path d="M0 0 C0.33 0 0.66 0 1 0 C1 2.31 1 4.62 1 7 C0.01 7 -0.98 7 -2 7 C-2 7.66 -2 8.32 -2 9 C-1.34 9 -0.68 9 0 9 C0 9.66 0 10.32 0 11 C0.66 11.33 1.32 11.66 2 12 C-3.36000789 14.25684543 -7.1977825 15.36263859 -13 15 C-13 14.01 -13 13.02 -13 12 C-11.02 11.34 -9.04 10.68 -7 10 C-6.67 7.69 -6.34 5.38 -6 3 C-5.34 3.66 -4.68 4.32 -4 5 C-3.34 4.34 -2.68 3.68 -2 3 C-2 3.99 -2 4.98 -2 6 C-1.34 6 -0.68 6 0 6 C0 4.02 0 2.04 0 0 Z " fill="#3D3B3C" transform="translate(202,242)"/>
<path d="M0 0 C0.66 0.33 1.32 0.66 2 1 C1.98259766 1.95712891 1.98259766 1.95712891 1.96484375 2.93359375 C1.95582031 3.75988281 1.94679687 4.58617187 1.9375 5.4375 C1.92589844 6.26121094 1.91429687 7.08492187 1.90234375 7.93359375 C1.76732652 9.99163938 1.76732652 9.99163938 3 11 C3.37578842 13.9798847 3.70691037 16.94935961 4 19.9375 C4.16310908 21.59280233 4.32961794 23.24777422 4.5 24.90234375 C4.5721875 25.63960693 4.644375 26.37687012 4.71875 27.13647461 C4.91514408 29.08756076 4.91514408 29.08756076 6 31 C7.01971237 38.02468521 7.10796926 44.91001881 7 52 C6.67 52 6.34 52 6 52 C5.87882813 50.98421875 5.75765625 49.9684375 5.6328125 48.921875 C4.76172207 41.72461117 3.80219809 34.56888239 2.578125 27.421875 C1.79480092 22.78544329 1.04229703 18.14514354 0.3125 13.5 C0.1688501 12.62633789 0.0252002 11.75267578 -0.12280273 10.85253906 C-0.25114502 10.02463867 -0.3794873 9.19673828 -0.51171875 8.34375 C-0.62990967 7.60318359 -0.74810059 6.86261719 -0.86987305 6.09960938 C-1.00944063 3.84767463 -0.65878194 2.14642251 0 0 Z " fill="#BBBABB" transform="translate(226,245)"/>
<path d="M0 0 C0 0.66 0 1.32 0 2 C5.28 2 10.56 2 16 2 C16 2.33 16 2.66 16 3 C5.57904782 4.53370124 -4.46077862 5.27256607 -15 5 C-15.33 4.01 -15.66 3.02 -16 2 C-14.08404518 1.66259915 -12.16720278 1.33023588 -10.25 1 C-9.18265625 0.814375 -8.1153125 0.62875 -7.015625 0.4375 C-4 0 -4 0 0 0 Z " fill="#CDCBCC" transform="translate(491,168)"/>
<path d="M0 0 C0.33 0 0.66 0 1 0 C1.84329993 3.8728998 2.67285999 7.74861953 3.5 11.625 C3.85771484 13.26662109 3.85771484 13.26662109 4.22265625 14.94140625 C4.44824219 16.00488281 4.67382812 17.06835938 4.90625 18.1640625 C5.11572266 19.13811035 5.32519531 20.1121582 5.54101562 21.11572266 C6.01976189 24.12418453 6.07888771 26.95887878 6 30 C5.34 30 4.68 30 4 30 C3.12040864 26.69373138 2.27617041 23.37936359 1.4375 20.0625 C1.19064453 19.13630859 0.94378906 18.21011719 0.68945312 17.25585938 C-0.85081674 11.07308596 -1.07708619 6.28837745 0 0 Z " fill="#A3A1A2" transform="translate(196,218)"/>
<path d="M0 0 C0.66 0 1.32 0 2 0 C1.34 1.65 0.68 3.3 0 5 C1.65 5 3.3 5 5 5 C5 5.33 5 5.66 5 6 C4.28714844 6.12117187 3.57429688 6.24234375 2.83984375 6.3671875 C-2.55234841 7.31063969 -7.77235672 8.37362209 -13 10 C-13 9.34 -13 8.68 -13 8 C-14.98 8 -16.96 8 -19 8 C-18 6 -18 6 -16.25 5.18359375 C-10.79570824 3.37496575 -5.73046625 2.45479891 0 2 C0 1.34 0 0.68 0 0 Z " fill="#393939" transform="translate(456,178)"/>
<path d="M0 0 C3.4610078 0.2192655 6.91756281 0.48058931 10.375 0.75 C11.35984375 0.811875 12.3446875 0.87375 13.359375 0.9375 C14.30039062 1.01484375 15.24140625 1.0921875 16.2109375 1.171875 C17.08024902 1.2347168 17.94956055 1.29755859 18.84521484 1.36230469 C19.55629395 1.57274414 20.26737305 1.78318359 21 2 C21.66 3.32 22.32 4.64 23 6 C14.42 5.34 5.84 4.68 -3 4 C-3 3.67 -3 3.34 -3 3 C-1.02 2.67 0.96 2.34 3 2 C2.01 1.34 1.02 0.68 0 0 Z " fill="#C8C8C8" transform="translate(567,172)"/>
<path d="M0 0 C2.83038128 2.83038128 2.89266455 6.00292542 3.5 9.8125 C3.62818115 10.57715576 3.7563623 11.34181152 3.88842773 12.12963867 C4.8169253 17.71402989 5.68620454 23.30807978 6.52734375 28.90625 C7.29737659 33.94646498 8.14857862 38.97299078 9 44 C8.34 44 7.68 44 7 44 C5.25002068 40.50004136 5.03440566 36.52883066 4.4375 32.6875 C4.29892578 31.83220703 4.16035156 30.97691406 4.01757812 30.09570312 C3.37847743 26.03127454 2.80417447 22.1293644 3 18 C2.34 18 1.68 18 1 18 C0.67 12.06 0.34 6.12 0 0 Z " fill="#999898" transform="translate(216,191)"/>
<path d="M0 0 C1.32 0.66 2.64 1.32 4 2 C3.375 3.9375 3.375 3.9375 2 6 C-1.125 6.75 -1.125 6.75 -4 7 C-4 7.66 -4 8.32 -4 9 C-8.38461538 12 -8.38461538 12 -11 12 C-11.33 11.01 -11.66 10.02 -12 9 C-9.67350413 6.49280542 -7.17318479 4.67816399 -4.3125 2.8125 C-3.50425781 2.28269531 -2.69601562 1.75289062 -1.86328125 1.20703125 C-1.24839844 0.80871094 -0.63351562 0.41039062 0 0 Z " fill="#3E3D3D" transform="translate(391,205)"/>
<path d="M0 0 C-1.98 0.33 -3.96 0.66 -6 1 C-6.33 1.99 -6.66 2.98 -7 4 C-14.92 4.495 -14.92 4.495 -23 5 C-22.67 4.01 -22.34 3.02 -22 2 C-15.82631181 -1.00341587 -6.60986003 -2.10313728 0 0 Z " fill="#F1EFEF" transform="translate(513,166)"/>
<path d="M0 0 C2.16770202 6.50310606 -1.55949495 13.89873738 -4 20 C-4.99 19.67 -5.98 19.34 -7 19 C-7 16.69 -7 14.38 -7 12 C-6.34 12 -5.68 12 -5 12 C-4.9175 10.7625 -4.835 9.525 -4.75 8.25 C-4.36524541 5.01117036 -4.09975997 4.12092117 -1.9375 1.5 C-1.298125 1.005 -0.65875 0.51 0 0 Z " fill="#282727" transform="translate(85,139)"/>
<path d="M0 0 C-0.24609375 1.86328125 -0.24609375 1.86328125 -1 4 C-6.09510464 7.51194302 -11.94879053 8.55991204 -18 9 C-15.20082035 4.10143561 -10.17423432 1.94206954 -4.93359375 0.38671875 C-3 0 -3 0 0 0 Z " fill="#484647" transform="translate(414,197)"/>
<path d="M0 0 C0 0.33 0 0.66 0 1 C-17.16 0.67 -34.32 0.34 -52 0 C-52 -0.33 -52 -0.66 -52 -1 C-46.73491394 -1.1686449 -41.46966287 -1.32908677 -36.20410156 -1.48217773 C-34.41562297 -1.53530246 -32.62720763 -1.59060552 -30.83886719 -1.64819336 C-28.25730016 -1.73093589 -25.67560155 -1.80564838 -23.09375 -1.87890625 C-21.90888 -1.91945885 -21.90888 -1.91945885 -20.70007324 -1.96083069 C-13.63802671 -2.14752342 -6.95946142 -1.21790575 0 0 Z " fill="#605F5F" transform="translate(576,174)"/>
<path d="M0 0 C2.97 0 5.94 0 9 0 C9 0.66 9 1.32 9 2 C11.475 2.99 11.475 2.99 14 4 C12 5 12 5 9.25 4.8125 C5.16846394 5.04797323 3.20435409 6.55858736 0 9 C-0.33 8.01 -0.66 7.02 -1 6 C-0.67 5.34 -0.34 4.68 0 4 C-0.66 4 -1.32 4 -2 4 C-1.34 2.68 -0.68 1.36 0 0 Z " fill="#4F4F4F" transform="translate(266,296)"/>
<path d="M0 0 C-1.06319302 3.18957907 -1.85710731 4.08378632 -4.3125 6.25 C-4.90675781 6.79140625 -5.50101562 7.3328125 -6.11328125 7.890625 C-8 9 -8 9 -10.23046875 8.671875 C-10.81441406 8.45015625 -11.39835937 8.2284375 -12 8 C-12 5 -12 5 -9.75 2.375 C-6.06806875 -0.80484971 -4.61097088 -1.53699029 0 0 Z " fill="#424141" transform="translate(355,55)"/>
<path d="M0 0 C0.33 0 0.66 0 1 0 C1.70776992 7.35575165 2.14715692 14.6094524 2 22 C0.046875 21.01171875 0.046875 21.01171875 -2 19 C-2.45718128 16.15433959 -2.69521446 13.66383827 -2.75 10.8125 C-2.77964844 10.06291016 -2.80929688 9.31332031 -2.83984375 8.54101562 C-2.9104079 6.69458693 -2.95748476 4.84728739 -3 3 C-2.01 4.485 -2.01 4.485 -1 6 C-0.67 4.02 -0.34 2.04 0 0 Z " fill="#B1B1B1" transform="translate(205,277)"/>
<path d="M0 0 C-0.99 0.495 -0.99 0.495 -2 1 C-2 3.64 -2 6.28 -2 9 C-2.66 7.68 -3.32 6.36 -4 5 C-3.67 10.28 -3.34 15.56 -3 21 C-5.8551592 16.7172612 -6.11672494 13.85541942 -6.0625 8.8125 C-6.05347656 7.72582031 -6.04445312 6.63914062 -6.03515625 5.51953125 C-6.02355469 4.68808594 -6.01195312 3.85664063 -6 3 C-9.63 3 -13.26 3 -17 3 C-16.67 2.34 -16.34 1.68 -16 1 C-14.39125 1.061875 -14.39125 1.061875 -12.75 1.125 C-9.1635769 1.26647205 -9.1635769 1.26647205 -6.875 -0.0625 C-4.30252959 -1.3487352 -2.7007861 -0.75021836 0 0 Z " fill="#797778" transform="translate(205,255)"/>
<path d="M0 0 C0.66 0 1.32 0 2 0 C4.28612778 7.15775723 5.44032071 13.48193151 5 21 C3 18 3 18 3 16 C2.34 16 1.68 16 1 16 C0.63913128 13.52163716 0.28601843 11.04260213 -0.0625 8.5625 C-0.16626953 7.85544922 -0.27003906 7.14839844 -0.37695312 6.41992188 C-0.62689163 4.61864093 -0.81801314 2.80940959 -1 1 C-0.67 0.67 -0.34 0.34 0 0 Z " fill="#2E2D2E" transform="translate(194,229)"/>
<path d="M0 0 C0 0.66 0 1.32 0 2 C-4.455 2.495 -4.455 2.495 -9 3 C-9 3.66 -9 4.32 -9 5 C-11.09950586 5.86555948 -13.2047907 6.71711277 -15.3125 7.5625 C-17.07013672 8.27599609 -17.07013672 8.27599609 -18.86328125 9.00390625 C-22 10 -22 10 -25 9 C-8.58840664 -0.99097 -8.58840664 -0.99097 0 0 Z " fill="#818080" transform="translate(432,187)"/>
<path d="M0 0 C2.05151282 3.07726923 2.4410553 4.67674637 3 8.25 C3.54839567 11.57108415 4.15230522 14.73464905 5.1875 17.9375 C5.97059 20.88914691 6.11521352 22.2119662 5 25 C4.67 23.35 4.34 21.7 4 20 C3.34 20 2.68 20 2 20 C2 21.65 2 23.3 2 25 C-0.56616632 21.15075052 -0.55097676 18.5650696 -1 14 C-0.01 14.495 -0.01 14.495 1 15 C0.67 10.05 0.34 5.1 0 0 Z " fill="#B7B5B6" transform="translate(174,121)"/>
<path d="M0 0 C0.33 0.66 0.66 1.32 1 2 C-3.8836671 7.90436923 -9.1719243 13.03093773 -15 18 C-15.66 17.67 -16.32 17.34 -17 17 C-15.71937515 15.2925002 -14.38232443 13.62626404 -13 12 C-12.34 12 -11.68 12 -11 12 C-10.67 11.01 -10.34 10.02 -10 9 C-9.34 9 -8.68 9 -8 9 C-7.67 8.01 -7.34 7.02 -7 6 C-6.34 6 -5.68 6 -5 6 C-4.67 5.01 -4.34 4.02 -4 3 C-1.9375 1.3125 -1.9375 1.3125 0 0 Z " fill="#C8C6C7" transform="translate(128,85)"/>
<path d="M0 0 C0.66 0.33 1.32 0.66 2 1 C1.67 1.33 1.34 1.66 1 2 C2.65 2 4.3 2 6 2 C4.49812318 5.00375365 2.37277281 5.13261211 -0.75 6.1875 C-1.79671875 6.55230469 -2.8434375 6.91710937 -3.921875 7.29296875 C-7.08559469 8.01966071 -8.91743487 7.89622727 -12 7 C-10.02579865 4.47740939 -9.03254358 4.0070192 -5.8125 3.3125 C-4.4203125 3.1578125 -4.4203125 3.1578125 -3 3 C-3 2.34 -3 1.68 -3 1 C-2.01 0.67 -1.02 0.34 0 0 Z " fill="#303030" transform="translate(426,189)"/>
<path d="M0 0 C0.66 0 1.32 0 2 0 C2 1.32 2 2.64 2 4 C3.32 3.34 4.64 2.68 6 2 C5.55090939 3.48199902 5.09043436 4.96055236 4.625 6.4375 C4.36976562 7.26121094 4.11453125 8.08492187 3.8515625 8.93359375 C3 11 3 11 1 12 C1 10.68 1 9.36 1 8 C-0.98 8.99 -2.96 9.98 -5 11 C-3.55049545 7.2089881 -1.84827434 3.6125362 0 0 Z " fill="#494748" transform="translate(84,133)"/>
<path d="M0 0 C1.2288865 3.51461538 0.75329849 5.68356387 -0.375 9.1875 C-0.65085937 10.06792969 -0.92671875 10.94835937 -1.2109375 11.85546875 C-2 14 -2 14 -3 15 C-3.07244053 17.01964199 -3.08377188 19.04167124 -3.0625 21.0625 C-3.04896484 22.71958984 -3.04896484 22.71958984 -3.03515625 24.41015625 C-3.02355469 25.26480469 -3.01195312 26.11945313 -3 27 C-2.34 26.67 -1.68 26.34 -1 26 C-1.33 27.32 -1.66 28.64 -2 30 C-3.32 30 -4.64 30 -6 30 C-5.88525534 27.45749979 -5.7585303 24.91652662 -5.625 22.375 C-5.5940625 21.66214844 -5.563125 20.94929688 -5.53125 20.21484375 C-5.28886513 15.81151861 -4.54458585 12.17159801 -3 8 C-2.835 6.9275 -2.67 5.855 -2.5 4.75 C-2 2 -2 2 0 0 Z " fill="#CFCECE" transform="translate(415,70)"/>
<path d="M0 0 C0.66 0 1.32 0 2 0 C4.77471079 6.24309927 5.37634203 11.19796625 5 18 C2.37448713 16.68724357 2.30493495 15.6756418 1.375 12.9375 C-0.0563123 8.44936494 -0.25551673 4.68447333 0 0 Z " fill="#E6E4E4" transform="translate(176,141)"/>
<path d="M0 0 C2 2 2 2 2.22705078 4.15478516 C2.21657715 5.02409668 2.20610352 5.8934082 2.1953125 6.7890625 C2.18886719 7.73007813 2.18242187 8.67109375 2.17578125 9.640625 C2.15902344 10.62546875 2.14226562 11.6103125 2.125 12.625 C2.11597656 13.61757812 2.10695313 14.61015625 2.09765625 15.6328125 C2.07404116 18.08878134 2.04110799 20.54427168 2 23 C1.34 23 0.68 23 0 23 C-0.12375 23.969375 -0.2475 24.93875 -0.375 25.9375 C-0.58125 26.948125 -0.7875 27.95875 -1 29 C-1.66 29.33 -2.32 29.66 -3 30 C-2.7834375 29.00742188 -2.566875 28.01484375 -2.34375 26.9921875 C-0.43522643 17.82945996 0.39623506 9.39223846 0 0 Z " fill="#919191" transform="translate(468,201)"/>
<path d="M0 0 C0.33 0 0.66 0 1 0 C1.33 5.28 1.66 10.56 2 16 C2.33 14.35 2.66 12.7 3 11 C3.33 11 3.66 11 4 11 C4.09038099 16.15171623 3.84681133 20.91913204 3 26 C2.01 26 1.02 26 0 26 C0 17.42 0 8.84 0 0 Z " fill="#C1C1C1" transform="translate(70,186)"/>
<path d="M0 0 C0.99 0.33 1.98 0.66 3 1 C3.33 5.95 3.66 10.9 4 16 C3.67 15.34 3.34 14.68 3 14 C2.34 14 1.68 14 1 14 C-1.20808081 8.80451575 -0.93402724 5.41735797 0 0 Z " fill="#363636" transform="translate(184,188)"/>
<path d="M0 0 C2.57143865 2.57143865 2.40333707 3.98950055 2.6875 7.5625 C2.77386719 8.55378906 2.86023438 9.54507813 2.94921875 10.56640625 C2.97435547 11.77103516 2.97435547 11.77103516 3 13 C2.67 13.33 2.34 13.66 2 14 C1.92755947 16.01964199 1.91622812 18.04167124 1.9375 20.0625 C1.95103516 21.71958984 1.95103516 21.71958984 1.96484375 23.41015625 C1.97644531 24.26480469 1.98804688 25.11945313 2 26 C-1.51760602 22.48239398 -1.05502509 17.87157039 -1.0625 13.125 C-1.0466164 11.74993391 -1.02749766 10.37488287 -1 9 C-0.67 9 -0.34 9 0 9 C0 6.03 0 3.06 0 0 Z " fill="#5D5D5D" transform="translate(187,193)"/>
<path d="M0 0 C0.66 0.33 1.32 0.66 2 1 C0.75 3 0.75 3 -1 5 C-2.32 5 -3.64 5 -5 5 C-5.2475 5.639375 -5.495 6.27875 -5.75 6.9375 C-7 9 -7 9 -9.125 9.75 C-10.053125 9.87375 -10.053125 9.87375 -11 10 C-11 10.66 -11 11.32 -11 12 C-12.98 12.66 -14.96 13.32 -17 14 C-16.34 13.01 -15.68 12.02 -15 11 C-14.34 11 -13.68 11 -13 11 C-13 10.34 -13 9.68 -13 9 C-10.91796875 7.34375 -10.91796875 7.34375 -8.1875 5.5 C-7.29417969 4.8915625 -6.40085937 4.283125 -5.48046875 3.65625 C-3.65413054 2.43677378 -1.82722366 1.2181491 0 0 Z " fill="#606060" transform="translate(388,182)"/>
<path d="M0 0 C0.66 0 1.32 0 2 0 C3.13764351 4.26616316 4 7.56486311 4 12 C3.34 12 2.68 12 2 12 C2 14.97 2 17.94 2 21 C1.67 21 1.34 21 1 21 C0.06145994 13.96094956 -0.10808032 7.09727428 0 0 Z " fill="#BDBBBC" transform="translate(203,256)"/>
<path d="M0 0 C2.39763185 2.39763185 2.34280586 3.33273498 2.625 6.625 C2.69976562 7.44226563 2.77453125 8.25953125 2.8515625 9.1015625 C2.92503906 10.04128906 2.92503906 10.04128906 3 11 C2.34 11 1.68 11 1 11 C1 13.97 1 16.94 1 20 C-0.63440175 16.73119651 -1.48043948 14.48745638 -2.1875 11 C-2.36667969 10.154375 -2.54585937 9.30875 -2.73046875 8.4375 C-3.00334098 5.96978589 -2.76424119 4.34150494 -2 2 C-1.67 4.64 -1.34 7.28 -1 10 C-0.34 10 0.32 10 1 10 C0.67 6.7 0.34 3.4 0 0 Z " fill="#757575" transform="translate(177,153)"/>
<path d="M0 0 C0 0.66 0 1.32 0 2 C-1.79036458 2.94401042 -3.58072917 3.88802083 -5.37109375 4.83203125 C-7.32267987 5.99019799 -7.32267987 5.99019799 -8 9 C-10.1875 10.0625 -10.1875 10.0625 -13 11 C-14.6396875 11.556875 -14.6396875 11.556875 -16.3125 12.125 C-17.6428125 12.558125 -17.6428125 12.558125 -19 13 C-15.4010486 9.18293034 -11.61508373 5.57001108 -7 3 C-6.01 3 -5.02 3 -4 3 C-4 2.34 -4 1.68 -4 1 C-2 0 -2 0 0 0 Z " fill="#C0C0C0" transform="translate(391,211)"/>
<path d="M0 0 C0.66 0.33 1.32 0.66 2 1 C-0.33674182 6.2576691 -3.86873284 7.99082821 -9 10 C-10.32673377 10.35870098 -11.65878417 10.69995171 -13 11 C-13 10.34 -13 9.68 -13 9 C-11.3203125 7.7109375 -11.3203125 7.7109375 -9.125 6.375 C-8.40570313 5.92898437 -7.68640625 5.48296875 -6.9453125 5.0234375 C-5 4 -5 4 -3 4 C-3 3.34 -3 2.68 -3 2 C-2.01 1.34 -1.02 0.68 0 0 Z " fill="#939292" transform="translate(368,47)"/>
<path d="M0 0 C0.33 0 0.66 0 1 0 C3.38994476 8.34226001 4.5946828 16.33459773 5 25 C4.01 25 3.02 25 2 25 C2 19.72 2 14.44 2 9 C1.34 9 0.68 9 0 9 C0 6.03 0 3.06 0 0 Z " fill="#BBBBBB" transform="translate(191,227)"/>
<path d="M0 0 C4.50683854 2.00303935 7.94848568 4.4602826 10.75 8.5625 C12.47803351 13.31459214 12.74079206 17.97672886 13 23 C11.01350558 20.02025837 10.27822521 17.86336935 9.375 14.4375 C9.11460937 13.46683594 8.85421875 12.49617188 8.5859375 11.49609375 C8 9 8 9 8 7 C7.4225 6.773125 6.845 6.54625 6.25 6.3125 C3.4336339 4.66961977 1.91922886 2.60466773 0 0 Z " fill="#B3B3B3" transform="translate(193,109)"/>
<path d="M0 0 C0.66 1.65 1.32 3.3 2 5 C1.01 4.67 0.02 4.34 -1 4 C-1 3.01 -1 2.02 -1 1 C-1.85722656 1.27714844 -2.71445312 1.55429688 -3.59765625 1.83984375 C-14.9543058 5.43760984 -14.9543058 5.43760984 -21 6 C-20 4 -20 4 -18.14453125 3.18359375 C-12.05961738 1.23682901 -6.44288835 -0.18949672 0 0 Z " fill="#B8B8B8" transform="translate(461,184)"/>
<path d="M0 0 C-1.33934244 2.67868487 -2.51692397 2.74954078 -5.3125 3.6875 C-6.48232422 4.09548828 -6.48232422 4.09548828 -7.67578125 4.51171875 C-10.18274511 5.03839183 -11.60132343 4.8178554 -14 4 C-13.34 3.67 -12.68 3.34 -12 3 C-14.31 3 -16.62 3 -19 3 C-14.5156343 -1.4843657 -5.95860074 -0.10790223 0 0 Z " fill="#858484" transform="translate(403,34)"/>
<path d="M0 0 C0 0.99 0 1.98 0 3 C-9.41002278 5.29612756 -9.41002278 5.29612756 -14 5 C-10.7547422 0.1321133 -5.61593946 -0.34035997 0 0 Z " fill="#C4C2C2" transform="translate(456,177)"/>
<path d="M0 0 C2.125 0.9375 2.125 0.9375 4 2 C0.81237635 4.12508244 -1.26512223 4.5020163 -5 5 C-5 5.66 -5 6.32 -5 7 C-7.31 7.33 -9.62 7.66 -12 8 C-11.5 6.1875 -11.5 6.1875 -10 4 C-7.41401579 2.73988058 -4.72958123 1.89280053 -2 1 C-1.34 0.67 -0.68 0.34 0 0 Z " fill="#DBD9D9" transform="translate(380,42)"/>
<path d="M0 0 C0.66 0.66 1.32 1.32 2 2 C-3.75 7 -3.75 7 -6 7 C-6.33 7.99 -6.66 8.98 -7 10 C-7.66 10 -8.32 10 -9 10 C-9.33 10.99 -9.66 11.98 -10 13 C-10.99 13.33 -11.98 13.66 -13 14 C-11.4411666 10.17377257 -9.04566418 7.74852621 -6 5 C-5.01 4.67 -4.02 4.34 -3 4 C-2.67 3.01 -2.34 2.02 -2 1 C-1.34 0.67 -0.68 0.34 0 0 Z " fill="#4B494A" transform="translate(354,57)"/>
<path d="M0 0 C0.33 0.66 0.66 1.32 1 2 C0.0625 4.125 0.0625 4.125 -1 6 C-1.66 6 -2.32 6 -3 6 C-2.67 7.65 -2.34 9.3 -2 11 C-4 12 -6 13 -8 14 C-8.33 14.99 -8.66 15.98 -9 17 C-9.66 17 -10.32 17 -11 17 C-9.50328459 12.50985376 -7.16631659 8.52151236 -4 5 C-3.34 5 -2.68 5 -2 5 C-1.34 3.35 -0.68 1.7 0 0 Z " fill="#6E6C6C" transform="translate(77,104)"/>
<path d="M0 0 C0.76171875 1.70703125 0.76171875 1.70703125 1 4 C-0.73046875 6.32421875 -0.73046875 6.32421875 -3.1875 8.6875 C-3.98542969 9.47511719 -4.78335937 10.26273438 -5.60546875 11.07421875 C-7.87726511 12.90129151 -9.15886805 13.61465107 -12 14 C-11.67 13.34 -11.34 12.68 -11 12 C-10.34 12 -9.68 12 -9 12 C-8.7525 11.443125 -8.505 10.88625 -8.25 10.3125 C-6.77075182 7.57589087 -5.06532561 5.32349131 -3 3 C-2.34 3 -1.68 3 -1 3 C-0.67 2.01 -0.34 1.02 0 0 Z " fill="#CAC8C9" transform="translate(261,214)"/>
<path d="M0 0 C3.33449915 4.44599886 3.54284095 6.74957118 3 12 C2.44001677 15.35989941 1.76187671 18.68039434 1 22 C0.67 22 0.34 22 0 22 C0 14.74 0 7.48 0 0 Z " fill="#727272" transform="translate(71,185)"/>
<path d="M0 0 C3.01343955 3.32851768 3.44667544 5.81882813 3.6875 10.25 C3.75324219 11.32765625 3.81898438 12.4053125 3.88671875 13.515625 C3.92410156 14.33546875 3.96148437 15.1553125 4 16 C3.34 16 2.68 16 2 16 C0.40837921 10.42932723 -0.20674944 5.78898419 0 0 Z " fill="#BEBCBD" transform="translate(198,232)"/>
<path d="M0 0 C5.8888434 -0.21221057 10.83290313 0.44679567 16.5 2 C17.59054687 2.28617188 17.59054687 2.28617188 18.703125 2.578125 C20.47106531 3.04337245 22.23588933 3.52043593 24 4 C16.7094089 6.18882306 8.30217276 3.9856182 1.5625 0.875 C1.046875 0.58625 0.53125 0.2975 0 0 Z " fill="#828181" transform="translate(371,137)"/>
<path d="M0 0 C2 2 2 2 2.25 5 C2 8 2 8 0 10 C-0.99 11.485 -0.99 11.485 -2 13 C-3.66342837 11.33657163 -3.36048097 9.2174291 -3.5625 6.9375 C-3.64628906 6.01839844 -3.73007813 5.09929687 -3.81640625 4.15234375 C-3.90728516 3.08693359 -3.90728516 3.08693359 -4 2 C-3.01 2.495 -3.01 2.495 -2 3 C-2 3.99 -2 4.98 -2 6 C-1.34 6 -0.68 6 0 6 C0 4.02 0 2.04 0 0 Z " fill="#696969" transform="translate(184,181)"/>
<path d="M0 0 C4.46839215 -0.21278058 7.82262526 0.40861915 12 2 C11.67 2.66 11.34 3.32 11 4 C8.36 4 5.72 4 3 4 C2.67 4.99 2.34 5.98 2 7 C1.7834375 5.824375 1.7834375 5.824375 1.5625 4.625 C1.12201075 2.03578982 1.12201075 2.03578982 0 0 Z " fill="#3A3839" transform="translate(481,174)"/>
<path d="M0 0 C-1.11375 0.474375 -2.2275 0.94875 -3.375 1.4375 C-5.26710994 2.25306463 -7.15712709 3.07856355 -9 4 C-10.54023996 4.06950541 -12.08334988 4.08452357 -13.625 4.0625 C-14.85089844 4.04896484 -14.85089844 4.04896484 -16.1015625 4.03515625 C-17.04128906 4.01775391 -17.04128906 4.01775391 -18 4 C-15.48115349 1.48115349 -13.56355758 1.1742412 -10.125 0.3125 C-9.07570313 0.04050781 -8.02640625 -0.23148438 -6.9453125 -0.51171875 C-4.14833162 -0.97540921 -2.627808 -0.94575698 0 0 Z M-11 4 C-9 5 -9 5 -9 5 Z " fill="#5D5B5B" transform="translate(402,41)"/>
<path d="M0 0 C0.66 0 1.32 0 2 0 C2.70005949 2.07914664 3.38462244 4.16351586 4.0625 6.25 C4.44535156 7.41015625 4.82820312 8.5703125 5.22265625 9.765625 C6 13 6 13 5 17 C4.01 13.37 3.02 9.74 2 6 C1.34 6.99 0.68 7.98 0 9 C0 6.03 0 3.06 0 0 Z " fill="#444444" transform="translate(178,164)"/>
<path d="M0 0 C0.98120464 3.05263664 0.98120464 4.94736336 0 8 C-0.66 8 -1.32 8 -2 8 C-2 9.32 -2 10.64 -2 12 C-2.99 12 -3.98 12 -5 12 C-3.85814266 7.52040582 -2.56984833 3.85477249 0 0 Z " fill="#828081" transform="translate(80,143)"/>
<path d="M0 0 C3.35997759 5.03996638 4.29282455 9.99709677 4 16 C3.34 16 2.68 16 2 16 C0.40837921 10.42932723 -0.20674944 5.78898419 0 0 Z " fill="#262425" transform="translate(174,147)"/>
<path d="M0 0 C0.66 0.33 1.32 0.66 2 1 C2.4140625 4.16015625 2.4140625 4.16015625 2.625 8.0625 C2.69976562 9.35285156 2.77453125 10.64320313 2.8515625 11.97265625 C2.90054688 12.97167969 2.94953125 13.97070312 3 15 C-0.39332141 10.9225412 -0.66841941 8.22239436 -1 3 C-0.67 2.01 -0.34 1.02 0 0 Z " fill="#F8F6F7" transform="translate(173,124)"/>
<path d="M0 0 C-2.31 1.32 -4.62 2.64 -7 4 C-5.35 4 -3.7 4 -2 4 C-2.33 4.66 -2.66 5.32 -3 6 C-6.0625 6.625 -6.0625 6.625 -9 7 C-9.6875 5.1875 -9.6875 5.1875 -10 3 C-7.22158013 -0.75086682 -4.3306995 -1.34401019 0 0 Z " fill="#747273" transform="translate(380,39)"/>
<path d="M0 0 C0.33 0 0.66 0 1 0 C1.16905421 4.98709919 1.16313602 8.4333795 -1 13 C-1.67795528 14.99620166 -2.34733531 16.99538701 -3 19 C-4.25448159 15.23655524 -3.56453356 13.32709084 -2.625 9.5 C-2.34914063 8.3553125 -2.07328125 7.210625 -1.7890625 6.03125 C-1.26079817 4.00187811 -0.66312996 1.98938989 0 0 Z " fill="#BBBBBB" transform="translate(288,157)"/>
<path d="M0 0 C0.66 0 1.32 0 2 0 C2.33 1.98 2.66 3.96 3 6 C3.66 6 4.32 6 5 6 C6.28571429 13.42857143 6.28571429 13.42857143 5 17 C4.34 17 3.68 17 3 17 C3.33 14.36 3.66 11.72 4 9 C3.34 9 2.68 9 2 9 C1.34 6.03 0.68 3.06 0 0 Z " fill="#BFBEBE" transform="translate(431,45)"/>
<path d="M0 0 C-5.72455159 3.81636773 -11.29749495 3.29282789 -18 3 C-18 2.67 -18 2.34 -18 2 C-17.15695312 1.86722656 -16.31390625 1.73445313 -15.4453125 1.59765625 C-14.34960938 1.42105469 -13.25390625 1.24445313 -12.125 1.0625 C-10.48917969 0.80146484 -10.48917969 0.80146484 -8.8203125 0.53515625 C-2.32466063 -0.69739819 -2.32466063 -0.69739819 0 0 Z " fill="#9D9D9D" transform="translate(417,303)"/>
<path d="M0 0 C0.66 0.99 1.32 1.98 2 3 C0.10595266 6.34243648 -0.94091591 6.97997149 -4.6875 8.25 C-6.3271875 8.62125 -6.3271875 8.62125 -8 9 C-7.04270084 7.87411986 -6.08412105 6.7493285 -5.125 5.625 C-4.59132813 4.99851562 -4.05765625 4.37203125 -3.5078125 3.7265625 C-2.38567993 2.44163349 -1.20628025 1.20628025 0 0 Z " fill="#D0CECF" transform="translate(478,264)"/>
<path d="M0 0 C-2.98533205 1.99022137 -5.66566637 3.66626655 -9 5 C-11.875 4.1875 -11.875 4.1875 -14 3 C-10.28767995 -0.71232005 -5.00320561 -0.11912394 0 0 Z " fill="#403E3F" transform="translate(394,36)"/>
<path d="M0 0 C0.33 0 0.66 0 1 0 C3.28584898 6.55276707 3.60594368 13.10401439 4 20 C-0.01984912 13.97022631 -0.25729264 7.07554765 0 0 Z " fill="#838383" transform="translate(215,309)"/>
<path d="M0 0 C0.66 0.33 1.32 0.66 2 1 C1.484375 1.598125 0.96875 2.19625 0.4375 2.8125 C-0.2740625 3.8953125 -0.2740625 3.8953125 -1 5 C-0.67 5.99 -0.34 6.98 0 8 C-1.32 8.33 -2.64 8.66 -4 9 C-4 8.34 -4 7.68 -4 7 C-4.66 6.34 -5.32 5.68 -6 5 C-4.02 3.35 -2.04 1.7 0 0 Z " fill="#595858" transform="translate(398,200)"/>
<path d="M0 0 C0.33 0 0.66 0 1 0 C1.54372951 3.05847848 2 5.88772805 2 9 C1.01 9 0.02 9 -1 9 C-1.33 8.34 -1.66 7.68 -2 7 C-2.66 6.67 -3.32 6.34 -4 6 C-2.69593116 3.98079663 -1.36176581 1.98075027 0 0 Z " fill="#A5A5A5" transform="translate(539,237)"/>
<path d="M0 0 C-0.33 0.66 -0.66 1.32 -1 2 C-4.63 2 -8.26 2 -12 2 C-12.33 1.34 -12.66 0.68 -13 0 C-4.57142857 -1.28571429 -4.57142857 -1.28571429 0 0 Z " fill="#F5F3F4" transform="translate(488,171)"/>
<path d="M0 0 C0.33 0.66 0.66 1.32 1 2 C0.67 2.66 0.34 3.32 0 4 C1.98 3.01 3.96 2.02 6 1 C6 1.99 6 2.98 6 4 C5.34 4 4.68 4 4 4 C3.67 4.99 3.34 5.98 3 7 C1.35 6.67 -0.3 6.34 -2 6 C-1.125 1.125 -1.125 1.125 0 0 Z " fill="#434343" transform="translate(335,69)"/>
<path d="M0 0 C0 3.2388234 -0.19064577 4.36821203 -2 7 C-5.23032218 8.92444725 -7.21823079 10 -11 10 C-5.555 5.05 -5.555 5.05 0 0 Z " fill="#C4C4C4" transform="translate(248,228)"/>
<path d="M0 0 C3.96 0.33 7.92 0.66 12 1 C12 1.66 12 2.32 12 3 C13.98 3 15.96 3 18 3 C18 3.33 18 3.66 18 4 C14.7 4 11.4 4 8 4 C8 3.67 8 3.34 8 3 C5.36 2.34 2.72 1.68 0 1 C0 0.67 0 0.34 0 0 Z " fill="#989898" transform="translate(567,172)"/>
<path d="M0 0 C1.07999887 3.2399966 0.92129428 4.38363535 0.1875 7.625 C0.01605469 8.42164063 -0.15539062 9.21828125 -0.33203125 10.0390625 C-1 12 -1 12 -3 13 C-2.67 10.69 -2.34 8.38 -2 6 C-2.66 6 -3.32 6 -4 6 C-3.0022242 3.00667261 -2.2477975 2.05233685 0 0 Z " fill="#343233" transform="translate(85,139)"/>
<path d="M0 0 C2.56616632 3.84924948 2.55097676 6.4349304 3 11 C2.34 11 1.68 11 1 11 C0.67 12.32 0.34 13.64 0 15 C-1.125 7.375 -1.125 7.375 0 4 C0 2.68 0 1.36 0 0 Z " fill="#B0B0B0" transform="translate(186,174)"/>
<path d="M0 0 C3.76258262 5.64387394 2.91112252 10.56607328 2 17 C1.67 17 1.34 17 1 17 C0.1679418 11.27959989 -0.12036664 5.77759884 0 0 Z " fill="#898989" transform="translate(168,119)"/>
<path d="M0 0 C0.66 0.33 1.32 0.66 2 1 C2.40729228 3.32156597 2.74438677 5.6568787 3 8 C2.34 7.67 1.68 7.34 1 7 C0.34 7.66 -0.32 8.32 -1 9 C-1.09765625 2.84765625 -1.09765625 2.84765625 -1 1 C-0.67 0.67 -0.34 0.34 0 0 Z " fill="#292929" transform="translate(189,206)"/>
<path d="M0 0 C2.32590854 3.63423209 2.16265833 6.77088331 2 11 C1.67 10.34 1.34 9.68 1 9 C0.34 9 -0.32 9 -1 9 C-1.09765625 2.84765625 -1.09765625 2.84765625 -1 1 C-0.67 0.67 -0.34 0.34 0 0 Z " fill="#1E1E1E" transform="translate(186,193)"/>
<path d="M0 0 C0.66 0.33 1.32 0.66 2 1 C1.67 1.33 1.34 1.66 1 2 C2.65 2 4.3 2 6 2 C5.67 2.66 5.34 3.32 5 4 C2.93359375 4.4140625 2.93359375 4.4140625 0.4375 4.625 C-0.38878906 4.69976562 -1.21507812 4.77453125 -2.06640625 4.8515625 C-3.02353516 4.92503906 -3.02353516 4.92503906 -4 5 C-3.6875 3.0625 -3.6875 3.0625 -3 1 C-2.01 0.67 -1.02 0.34 0 0 Z " fill="#383637" transform="translate(426,189)"/>
<path d="M0 0 C0.66 0 1.32 0 2 0 C2.33 3.63 2.66 7.26 3 11 C0 8 0 8 -0.29296875 5.95703125 C-0.1953125 3.97135417 -0.09765625 1.98567708 0 0 Z " fill="#D7D7D7" transform="translate(187,185)"/>
<path d="M0 0 C1.32 0 2.64 0 4 0 C4 0.66 4 1.32 4 2 C4.99 2 5.98 2 7 2 C7.33 3.32 7.66 4.64 8 6 C6.02 6.66 4.04 7.32 2 8 C2 7.34 2 6.68 2 6 C2.99 6 3.98 6 5 6 C5 5.01 5 4.02 5 3 C2.525 2.01 2.525 2.01 0 1 C0 0.67 0 0.34 0 0 Z " fill="#9C9B9B" transform="translate(425,153)"/>
<path d="M0 0 C0.66 0 1.32 0 2 0 C3.60080151 4.00200378 2.29279692 7.04556236 1 11 C0.34 11 -0.32 11 -1 11 C-1.02688151 9.35425434 -1.04634123 7.70838587 -1.0625 6.0625 C-1.07410156 5.14597656 -1.08570312 4.22945313 -1.09765625 3.28515625 C-1 1 -1 1 0 0 Z " fill="#4A4849" transform="translate(94,118)"/>
<path d="M0 0 C2.64 0 5.28 0 8 0 C6.5977422 2.8045156 4.93929378 3.0442118 2.0625 4.1875 C1.16660156 4.55230469 0.27070313 4.91710937 -0.65234375 5.29296875 C-3 6 -3 6 -5 5 C-3.68 4.67 -2.36 4.34 -1 4 C-0.67 2.68 -0.34 1.36 0 0 Z " fill="#616060" transform="translate(393,70)"/>
<path d="M0 0 C0.66 0 1.32 0 2 0 C1.8125 1.8125 1.8125 1.8125 1 4 C-3.17857143 7 -3.17857143 7 -6 7 C-5.25 5.0625 -5.25 5.0625 -4 3 C-1.875 2.25 -1.875 2.25 0 2 C0 1.34 0 0.68 0 0 Z " fill="#222021" transform="translate(369,43)"/>
<path d="M0 0 C2.64 0 5.28 0 8 0 C5 2 5 2 2 2 C2.99 3.32 3.98 4.64 5 6 C4.67 6.66 4.34 7.32 4 8 C0 3.375 0 3.375 0 0 Z " fill="#B1AFB0" transform="translate(484,178)"/>
<path d="M0 0 C0.33 0 0.66 0 1 0 C0.54177532 3.46941546 0.10868317 6.67395049 -1 10 C-1.66 10 -2.32 10 -3 10 C-2.25 3.375 -2.25 3.375 0 0 Z " fill="#1F1F1F" transform="translate(78,159)"/>
<path d="M0 0 C2.31 0 4.62 0 7 0 C7 1.32 7 2.64 7 4 C4.61435923 3.42415568 2.33317216 2.77772405 0 2 C0 1.34 0 0.68 0 0 Z " fill="#D1D1D1" transform="translate(399,32)"/>
<path d="M0 0 C0.33 0.66 0.66 1.32 1 2 C-0.216875 1.95875 -1.43375 1.9175 -2.6875 1.875 C-6.21894127 1.86245492 -8.80003566 2.40001783 -12 4 C-9.20318285 -2.19295226 -6.13946066 -1.07196932 0 0 Z " fill="#767676" transform="translate(279,299)"/>
<path d="M0 0 C2 1 2 1 2.625 2.625 C3.12095645 5.7660575 3.06103811 8.82601831 3 12 C0.50494038 9.50494038 0.64051624 8.32671112 0.375 4.875 C0.30023438 3.96492187 0.22546875 3.05484375 0.1484375 2.1171875 C0.09945312 1.41851562 0.05046875 0.71984375 0 0 Z " fill="#C9C9C9" transform="translate(193,211)"/>
<path d="M0 0 C0.33 0 0.66 0 1 0 C0.93993922 1.45947705 0.8511311 2.91779272 0.75 4.375 C0.70359375 5.18710938 0.6571875 5.99921875 0.609375 6.8359375 C0 9 0 9 -2.046875 10.2890625 C-3.01367188 10.64097656 -3.01367188 10.64097656 -4 11 C-3.71125 10.29875 -3.4225 9.5975 -3.125 8.875 C-1.97866412 5.94547497 -0.97374346 2.99078347 0 0 Z " fill="#AFAEAE" transform="translate(280,181)"/>
<path d="M0 0 C-0.99 0.33 -1.98 0.66 -3 1 C-3 1.66 -3 2.32 -3 3 C-5.31 3.33 -7.62 3.66 -10 4 C-9.67 3.01 -9.34 2.02 -9 1 C-6.04335481 -0.4783226 -3.25770263 -0.06032783 0 0 Z " fill="#1D1D1D" transform="translate(446,185)"/>
<path d="M0 0 C0.66 0.33 1.32 0.66 2 1 C-1.87564767 4.61139896 -1.87564767 4.61139896 -4 6 C-6.375 5.8125 -6.375 5.8125 -8 5 C-5.31158141 2.74754119 -3.35358125 1.11786042 0 0 Z " fill="#6D6D6D" transform="translate(404,172)"/>
<path d="M0 0 C0.33 0.66 0.66 1.32 1 2 C-0.61594832 4.04119788 -2.2856382 6.04072937 -4 8 C-4.66 8 -5.32 8 -6 8 C-4.73058503 4.08597051 -3.48832306 2.20927127 0 0 Z " fill="#CECECE" transform="translate(128,85)"/>
<path d="M0 0 C0.99 0.33 1.98 0.66 3 1 C2.67 1.99 2.34 2.98 2 4 C0.0625 4.8125 0.0625 4.8125 -2 5 C-2.66 4.34 -3.32 3.68 -4 3 C-2.1875 1.4375 -2.1875 1.4375 0 0 Z " fill="#222222" transform="translate(352,54)"/>
<path d="M0 0 C-0.33 0.99 -0.66 1.98 -1 3 C-3.31 3.33 -5.62 3.66 -8 4 C-4.5 0 -4.5 0 0 0 Z " fill="#EBE9EA" transform="translate(389,40)"/>
<path d="M0 0 C1.32 0.66 2.64 1.32 4 2 C2.71034824 3.37562854 1.37310707 4.70766393 0 6 C-0.66 6 -1.32 6 -2 6 C-1.125 1.125 -1.125 1.125 0 0 Z " fill="#353334" transform="translate(466,271)"/>
<path d="M0 0 C2 2 2 2 2.1953125 3.9453125 C2.13020833 5.96354167 2.06510417 7.98177083 2 10 C-0.05619793 7.68677733 -0.95899829 6.44076838 -1.25 3.3125 C-1 1 -1 1 0 0 Z " fill="#1C1C1C" transform="translate(192,219)"/>
<path d="M0 0 C1.04005702 3.38018531 1.08004482 6.4780279 1 10 C0.01 10.33 -0.98 10.66 -2 11 C-1.125 3.375 -1.125 3.375 0 0 Z " fill="#484748" transform="translate(260,174)"/>
<path d="M0 0 C0.66 0 1.32 0 2 0 C3.1577506 3.47325181 3.06866652 6.36067448 3 10 C0.64551835 7.44931155 0.01672076 6.28982642 -0.1875 2.75 C-0.125625 1.8425 -0.06375 0.935 0 0 Z " fill="#F9F7F8" transform="translate(176,141)"/>
<path d="M0 0 C0.33 0 0.66 0 1 0 C1 3.3 1 6.6 1 10 C0.01 9.34 -0.98 8.68 -2 8 C-2 6.68 -2 5.36 -2 4 C-1.34 4 -0.68 4 0 4 C0 2.68 0 1.36 0 0 Z " fill="#BDBDBD" transform="translate(206,289)"/>
<path d="M0 0 C2.97 0 5.94 0 9 0 C9.66 1.32 10.32 2.64 11 4 C9.35 4 7.7 4 6 4 C6.33 3.01 6.66 2.02 7 1 C4.69 1 2.38 1 0 1 C0 0.67 0 0.34 0 0 Z " fill="#D4D4D4" transform="translate(579,174)"/>
<path d="M0 0 C0.66 0.66 1.32 1.32 2 2 C-3.75 7 -3.75 7 -6 7 C-5.67 6.01 -5.34 5.02 -5 4 C-4.34 4 -3.68 4 -3 4 C-2.67 3.01 -2.34 2.02 -2 1 C-1.34 0.67 -0.68 0.34 0 0 Z " fill="#737272" transform="translate(354,57)"/>
<path d="M0 0 C0.66 0.33 1.32 0.66 2 1 C1.375 2.9375 1.375 2.9375 0 5 C-3.125 5.75 -3.125 5.75 -6 6 C-5.67 5.34 -5.34 4.68 -5 4 C-4.34 4 -3.68 4 -3 4 C-3 3.34 -3 2.68 -3 2 C-2.01 1.34 -1.02 0.68 0 0 Z " fill="#AFADAE" transform="translate(368,47)"/>
<path d="M0 0 C2.39763185 2.39763185 2.34280586 3.33273498 2.625 6.625 C2.69976562 7.44226563 2.77453125 8.25953125 2.8515625 9.1015625 C2.90054688 9.72804687 2.94953125 10.35453125 3 11 C0.2441427 6.86621405 -0.10756445 4.94796454 0 0 Z " fill="#1C1A1B" transform="translate(196,239)"/>
<path d="M0 0 C1.8871875 0.0309375 1.8871875 0.0309375 3.8125 0.0625 C3.8125 0.7225 3.8125 1.3825 3.8125 2.0625 C-2.1275 2.5575 -2.1275 2.5575 -8.1875 3.0625 C-6.45706736 -0.39836529 -3.47359009 -0.0569441 0 0 Z " fill="#7D7B7C" transform="translate(428.1875,186.9375)"/>
<path d="M0 0 C0.66 0 1.32 0 2 0 C2.33 0.99 2.66 1.98 3 3 C2.34 3.66 1.68 4.32 1 5 C0.29289322 6.64991582 -0.37943989 8.31562256 -1 10 C-2.31223496 6.06329512 -1.24296256 3.87511856 0 0 Z " fill="#1E1C1C" transform="translate(258,185)"/>
<path d="M0 0 C0.66 0.33 1.32 0.66 2 1 C2.625 4.0625 2.625 4.0625 3 7 C1.2925002 5.71937515 -0.37373596 4.38232443 -2 3 C-2 2.34 -2 1.68 -2 1 C-1.34 0.67 -0.68 0.34 0 0 Z " fill="#C2C2C2" transform="translate(269,76)"/>
<path d="M0 0 C0.66 0 1.32 0 2 0 C1.75 2.875 1.75 2.875 1 6 C-1.0625 7.375 -1.0625 7.375 -3 8 C-1.125 2.25 -1.125 2.25 0 0 Z " fill="#B0AEAE" transform="translate(432,63)"/>
<path d="M0 0 C1.65 0.33 3.3 0.66 5 1 C5 1.66 5 2.32 5 3 C2.69 3.33 0.38 3.66 -2 4 C-1.34 2.68 -0.68 1.36 0 0 Z " fill="#C5C3C4" transform="translate(370,46)"/>
<path d="M0 0 C2.1875 0.3125 2.1875 0.3125 4 1 C2.75 2.5625 2.75 2.5625 1 4 C-1.1875 3.6875 -1.1875 3.6875 -3 3 C-1.75 1.4375 -1.75 1.4375 0 0 Z " fill="#2C2B2B" transform="translate(399,202)"/>
<path d="M0 0 C-0.66 0 -1.32 0 -2 0 C-2 0.66 -2 1.32 -2 2 C-4.31 2.33 -6.62 2.66 -9 3 C-7 0 -7 0 -5.0625 -0.75 C-3 -1 -3 -1 0 0 Z " fill="#A29FA0" transform="translate(425,190)"/>
<path d="M0 0 C0.99 0.33 1.98 0.66 3 1 C1.02 3.97 1.02 3.97 -1 7 C-1.66 6.01 -2.32 5.02 -3 4 C-2.01 2.68 -1.02 1.36 0 0 Z " fill="#2A2829" transform="translate(423,75)"/>
<path d="M0 0 C0.33 0.66 0.66 1.32 1 2 C0.3125 4.0625 0.3125 4.0625 -1 6 C-3.125 6.75 -3.125 6.75 -5 7 C-3.47793991 4.37098712 -2.15634036 2.15634036 0 0 Z " fill="#656364" transform="translate(341,62)"/>
</svg>
